<?xml version="1.0" encoding="UTF-8"?>
<svg width="1000px" height="1000px" viewBox="0 0 1000 1000" version="1.1" xmlns="http://www.w3.org/2000/svg" xmlns:xlink="http://www.w3.org/1999/xlink">
    <title>Artboard</title>
    <g id="Artboard" stroke="none" stroke-width="1" fill="none" fill-rule="evenodd">
        <rect fill="#D8D8D8" x="0" y="0" width="1000" height="1000"></rect>
        <g id="comp-sci-copy" fill-rule="nonzero">
            <polygon id="Path" fill="#71D2DF" points="216.666667 0 783.333333 0 783.333333 266.666667 216.666667 266.666667"></polygon>
            <path d="M950,866.666667 L983.333333,866.666667 L983.333333,916.666667 C983.333333,953.5 953.5,983.333333 916.666667,983.333333 L83.3333333,983.333333 C46.5,983.333333 16.6666667,953.5 16.6666667,916.666667 L16.6666667,866.666667 L66.6666667,866.666667 L383.333333,866.666667 L400,900 L600,900 L616.666667,866.666667 L950,866.666667 Z" id="Path" fill="#8360F4"></path>
            <path d="M950,333.333333 L950,866.666667 L616.666667,866.666667 L600,900 L400,900 L383.333333,866.666667 L66.6666667,866.666667 L66.6666667,333.333333 C66.6666667,296.5 96.5,266.666667 133.333333,266.666667 L883.333333,266.666667 C920.166667,266.666667 950,296.5 950,333.333333 Z" id="Path" fill="#6599ED"></path>
            <polygon id="Path" fill="#F6DB40" points="133.333333 333.333333 883.333333 333.333333 883.333333 800 133.333333 800"></polygon>
            <circle id="Oval" fill="#71D2DF" cx="783.333333" cy="433.333333" r="33.3333333"></circle>
            <circle id="Oval" fill="#71D2DF" cx="650" cy="550" r="33.3333333"></circle>
            <circle id="Oval" fill="#71D2DF" cx="500" cy="516.666667" r="33.3333333"></circle>
            <circle id="Oval" fill="#71D2DF" cx="350" cy="666.666667" r="33.3333333"></circle>
            <circle id="Oval" fill="#71D2DF" cx="233.333333" cy="433.333333" r="33.3333333"></circle>
            <g id="Group" fill="#1A1A1A">
                <path d="M983.333333,850 L966.666667,850 L966.666667,333.333333 C966.666667,287.383333 929.283333,250 883.333333,250 L783.333333,250 L783.333333,216.666667 L750,216.666667 L750,250 L716.666667,250 L716.666667,200 L683.333333,200 L683.333333,250 L583.333333,250 L583.333333,216.666667 L550,216.666667 L550,250 L450,250 L450,183.333333 L416.666667,183.333333 L416.666667,250 L316.666667,250 L316.666667,216.666667 L283.333333,216.666667 L283.333333,250 L250,250 L250,200 L216.666667,200 L216.666667,250 L133.333333,250 C87.3833333,250 50,287.383333 50,333.333333 L50,850 L16.6666667,850 C7.45,850 0,857.466667 0,866.666667 L0,916.666667 C0,962.616667 37.3833333,1000 83.3333333,1000 L916.666667,1000 C962.616667,1000 1000,962.616667 1000,916.666667 L1000,866.666667 C1000,857.466667 992.55,850 983.333333,850 Z M83.3333333,333.333333 C83.3333333,305.766667 105.766667,283.333333 133.333333,283.333333 L883.333333,283.333333 C910.9,283.333333 933.333333,305.766667 933.333333,333.333333 L933.333333,850 L616.666667,850 C610.35,850 604.583333,853.566667 601.75,859.216667 L589.7,883.333333 L410.3,883.333333 L398.233333,859.216667 C395.416667,853.566667 389.65,850 383.333333,850 L83.3333333,850 L83.3333333,333.333333 Z M966.666667,916.666667 C966.666667,944.233333 944.233333,966.666667 916.666667,966.666667 L83.3333333,966.666667 C55.7666667,966.666667 33.3333333,944.233333 33.3333333,916.666667 L33.3333333,883.333333 L373.033333,883.333333 L385.1,907.45 C387.916667,913.1 393.683333,916.666667 400,916.666667 L600,916.666667 C606.316667,916.666667 612.083333,913.1 614.916667,907.45 L626.966667,883.333333 L966.666667,883.333333 L966.666667,916.666667 Z" id="Shape"></path>
                <path d="M900,800 L900,333.333333 C900,324.133333 892.55,316.666667 883.333333,316.666667 L133.333333,316.666667 C124.116667,316.666667 116.666667,324.133333 116.666667,333.333333 L116.666667,800 C116.666667,809.2 124.116667,816.666667 133.333333,816.666667 L883.333333,816.666667 C892.55,816.666667 900,809.2 900,800 Z M866.666667,626.433333 L804.883333,688.216667 C801.766667,691.333333 800,695.583333 800,700 L800,783.333333 L750,783.333333 L750,690.233333 L795.116667,645.116667 C798.25,642 800,637.75 800,633.333333 L800,480.266667 C819.35,473.366667 833.333333,455.033333 833.333333,433.333333 C833.333333,411.633333 819.35,393.3 800,386.4 L800,350 L866.666667,350 L866.666667,626.433333 Z M333.333333,666.666667 C333.333333,657.483333 340.8,650 350,650 C359.2,650 366.666667,657.483333 366.666667,666.666667 C366.666667,675.85 359.2,683.333333 350,683.333333 C340.8,683.333333 333.333333,675.85 333.333333,666.666667 Z M366.666667,713.6 C386.016667,706.7 400,688.366667 400,666.666667 C400,639.1 377.566667,616.666667 350,616.666667 C322.433333,616.666667 300,639.1 300,666.666667 C300,688.366667 313.983333,706.7 333.333333,713.6 L333.333333,783.333333 L266.666667,783.333333 L266.666667,623.566667 L345.116667,545.116667 C348.25,542 350,537.75 350,533.333333 L350,350 L383.333333,350 L383.333333,566.666667 C383.333333,571.083333 385.083333,575.333333 388.216667,578.45 L483.333333,673.566667 L483.333333,783.333333 L366.666667,783.333333 L366.666667,713.6 Z M500,533.333333 C490.8,533.333333 483.333333,525.85 483.333333,516.666667 C483.333333,507.483333 490.8,500 500,500 C509.2,500 516.666667,507.483333 516.666667,516.666667 C516.666667,525.85 509.2,533.333333 500,533.333333 Z M483.333333,469.733333 C463.983333,476.633333 450,494.966667 450,516.666667 C450,538.366667 463.983333,556.7 483.333333,563.6 L483.333333,626.433333 L416.666667,559.766667 L416.666667,350 L483.333333,350 L483.333333,469.733333 Z M516.666667,563.6 C536.016667,556.7 550,538.366667 550,516.666667 C550,494.966667 536.016667,476.633333 516.666667,469.733333 L516.666667,350 L583.333333,350 L583.333333,383.333333 C583.333333,387.75 585.083333,392 588.216667,395.116667 L633.333333,440.233333 L633.333333,503.066667 C613.983333,509.966667 600,528.3 600,550 C600,571.7 613.983333,590.033333 633.333333,596.933333 L633.333333,626.433333 L554.883333,704.883333 C551.766667,708 550,712.25 550,716.666667 L550,783.333333 L516.666667,783.333333 L516.666667,563.6 Z M650,566.666667 C640.8,566.666667 633.333333,559.183333 633.333333,550 C633.333333,540.816667 640.8,533.333333 650,533.333333 C659.2,533.333333 666.666667,540.816667 666.666667,550 C666.666667,559.183333 659.2,566.666667 650,566.666667 Z M650,409.766667 L616.666667,376.433333 L616.666667,350 L683.333333,350 L683.333333,376.433333 L650,409.766667 Z M583.333333,723.566667 L633.333333,673.566667 L633.333333,783.333333 L583.333333,783.333333 L583.333333,723.566667 Z M666.666667,596.933333 C686.016667,590.033333 700,571.7 700,550 C700,528.3 686.016667,509.966667 666.666667,503.066667 L666.666667,440.233333 L711.783333,395.116667 C714.916667,392 716.666667,387.75 716.666667,383.333333 L716.666667,350 L766.666667,350 L766.666667,386.4 C747.316667,393.3 733.333333,411.633333 733.333333,433.333333 C733.333333,455.033333 747.316667,473.366667 766.666667,480.266667 L766.666667,626.433333 L721.55,671.55 C718.433333,674.666667 716.666667,678.916667 716.666667,683.333333 L716.666667,783.333333 L666.666667,783.333333 L666.666667,596.933333 Z M783.333333,450 C774.133333,450 766.666667,442.516667 766.666667,433.333333 C766.666667,424.15 774.133333,416.666667 783.333333,416.666667 C792.533333,416.666667 800,424.15 800,433.333333 C800,442.516667 792.533333,450 783.333333,450 Z M233.333333,450 C224.133333,450 216.666667,442.516667 216.666667,433.333333 C216.666667,424.15 224.133333,416.666667 233.333333,416.666667 C242.533333,416.666667 250,424.15 250,433.333333 C250,442.516667 242.533333,450 233.333333,450 Z M216.666667,350 L216.666667,386.4 C197.316667,393.3 183.333333,411.633333 183.333333,433.333333 C183.333333,455.033333 197.316667,473.366667 216.666667,480.266667 L216.666667,509.766667 L150,576.433333 L150,350 L216.666667,350 Z M150,623.566667 L245.116667,528.45 C248.25,525.333333 250,521.083333 250,516.666667 L250,480.266667 C269.35,473.366667 283.333333,455.033333 283.333333,433.333333 C283.333333,411.633333 269.35,393.3 250,386.4 L250,350 L316.666667,350 L316.666667,526.433333 L238.216667,604.883333 C235.1,608 233.333333,612.25 233.333333,616.666667 L233.333333,783.333333 L150,783.333333 L150,623.566667 Z M833.333333,783.333333 L833.333333,706.9 L866.666667,673.566667 L866.666667,783.333333 L833.333333,783.333333 Z" id="Shape"></path>
                <polygon id="Path" points="483.333333 183.333333 516.666667 183.333333 516.666667 216.666667 483.333333 216.666667"></polygon>
                <polygon id="Path" points="483.333333 66.6666667 516.666667 66.6666667 516.666667 150 483.333333 150"></polygon>
                <polygon id="Path" points="483.333333 0 516.666667 0 516.666667 33.3333333 483.333333 33.3333333"></polygon>
                <polygon id="Path" points="550 150 583.333333 150 583.333333 183.333333 550 183.333333"></polygon>
                <polygon id="Path" points="550 0 583.333333 0 583.333333 116.666667 550 116.666667"></polygon>
                <polygon id="Path" points="750 150 783.333333 150 783.333333 183.333333 750 183.333333"></polygon>
                <polygon id="Path" points="750 0 783.333333 0 783.333333 116.666667 750 116.666667"></polygon>
                <polygon id="Path" points="283.333333 150 316.666667 150 316.666667 183.333333 283.333333 183.333333"></polygon>
                <polygon id="Path" points="283.333333 0 316.666667 0 316.666667 50 283.333333 50"></polygon>
                <polygon id="Path" points="616.666667 133.333333 650 133.333333 650 216.666667 616.666667 216.666667"></polygon>
                <polygon id="Path" points="616.666667 66.6666667 650 66.6666667 650 100 616.666667 100"></polygon>
                <polygon id="Path" points="616.666667 0 650 0 650 33.3333333 616.666667 33.3333333"></polygon>
                <polygon id="Path" points="350 0 383.333333 0 383.333333 50 350 50"></polygon>
                <polygon id="Path" points="350 83.3333333 383.333333 83.3333333 383.333333 116.666667 350 116.666667"></polygon>
                <polygon id="Path" points="350 150 383.333333 150 383.333333 216.666667 350 216.666667"></polygon>
                <polygon id="Path" points="416.666667 0 450 0 450 83.3333333 416.666667 83.3333333"></polygon>
                <polygon id="Path" points="416.666667 116.666667 450 116.666667 450 150 416.666667 150"></polygon>
                <polygon id="Path" points="283.333333 83.3333333 316.666667 83.3333333 316.666667 116.666667 283.333333 116.666667"></polygon>
                <polygon id="Path" points="683.333333 0 716.666667 0 716.666667 166.666667 683.333333 166.666667"></polygon>
                <polygon id="Path" points="216.666667 0 250 0 250 166.666667 216.666667 166.666667"></polygon>
            </g>
        </g>
    </g>
</svg>