<?xml version="1.0" encoding="UTF-8"?>
<svg width="150px" height="191px" viewBox="0 0 150 191" version="1.1" xmlns="http://www.w3.org/2000/svg" xmlns:xlink="http://www.w3.org/1999/xlink">
    <title>Artboard</title>
    <g id="Artboard" stroke="none" stroke-width="1" fill="none" fill-rule="evenodd">
        <g id="file" fill-rule="nonzero">
            <g id="Group">
                <g id="Path">
                    <g>
                        <path d="M0.22759901,10.1257426 L0.22759901,179.973267 C0.22759901,185.565594 4.76101485,190.09901 10.3533416,190.09901 L139.646287,190.09901 C145.238614,190.09901 149.77203,185.565594 149.77203,179.973267 L149.77203,44.6561881 L105.116213,0 L10.3537129,0 C4.76138614,0 0.22759901,4.53341584 0.22759901,10.1257426 Z" fill="#EAECF0"></path>
                        <path d="M139.646287,190.09901 C145.238614,190.09901 149.77203,185.565594 149.77203,179.973267 L149.77203,44.6561881 L114.99505,9.87920792 L114.99505,51.7299505 C114.99505,55.9555693 118.420545,59.3806931 122.645792,59.3806931 L129.755198,59.3806931 L129.755198,190.09901 L139.646287,190.09901 Z" fill="#D3D7DE"></path>
                        <path d="M105.116213,0 L149.772401,44.6561881 L112.767327,44.6561881 C108.542079,44.6561881 105.116213,41.2306931 105.116213,37.0054455 L105.116213,0 L105.116213,0 Z" fill-opacity="0.76" fill="#EB445A"></path>
                    </g>
                    <path d="M76.3618812,28.6930693 L18.6018564,28.6930693 C17.0175743,28.6930693 15.7332921,27.4087871 15.7332921,25.824505 C15.7332921,24.2398515 17.0175743,22.9559406 18.6018564,22.9559406 L76.3618812,22.9559406 C77.9461634,22.9559406 79.2304455,24.2402228 79.2304455,25.824505 C79.2304455,27.4087871 77.9461634,28.6930693 76.3618812,28.6930693 Z" fill="#676E84"></path>
                    <path d="M76.3618812,47.5641089 L18.6018564,47.5641089 C17.0175743,47.5641089 15.7332921,46.2798267 15.7332921,44.6955446 C15.7332921,43.1108911 17.0175743,41.8269802 18.6018564,41.8269802 L76.3618812,41.8269802 C77.9461634,41.8269802 79.2304455,43.1112624 79.2304455,44.6955446 C79.2304455,46.2798267 77.9461634,47.5641089 76.3618812,47.5641089 Z" fill="#676E84"></path>
                </g>
                <path d="M123.695792,159.651238 L26.3042079,159.651238 C22.0503713,159.651238 18.6018564,156.202723 18.6018564,151.948886 L18.6018564,83.5288366 C18.6018564,79.275 22.0503713,75.8264851 26.3042079,75.8264851 L123.696163,75.8264851 C127.95,75.8264851 131.398515,79.275 131.398515,83.5288366 L131.398515,151.949257 C131.398515,156.202723 127.949629,159.651238 123.695792,159.651238 Z" id="Path" fill-opacity="0.761565095" fill="#EB445A"></path>
                <path d="M123.695792,75.8264851 L111.255074,75.8264851 L111.255074,159.651238 L123.695792,159.651238 C127.949629,159.651238 131.398144,156.202723 131.398144,151.948886 L131.398144,83.5288366 C131.398144,79.275 127.949629,75.8264851 123.695792,75.8264851 Z" id="Path" fill="#EB445A"></path>
            </g>
            <g id="Group" transform="translate(33.787129, 97.277228)" fill="#EAECF0">
                <path d="M15.4930693,31.1313119 L2.07438119,31.1313119 C0.928960396,31.1313119 0.0560643564,30.312995 0.0560643564,29.0042079 C0.0560643564,28.6221535 0.165222772,28.1858911 0.383539604,27.8042079 L13.5839109,1.7855198 C14.1839109,0.639727723 15.1659653,0.203465347 16.0930693,0.203465347 C17.1839109,0.203465347 18.9839109,1.07636139 18.9839109,2.43972772 C18.9839109,2.71262376 18.8747525,2.9855198 18.7113861,3.31262376 L7.47475248,25.7313119 L15.4930693,25.7313119 L15.4930693,18.2034653 C15.4930693,16.840099 16.9113861,16.2943069 18.3839109,16.2943069 C19.8022277,16.2943069 21.2747525,16.840099 21.2747525,18.2034653 L21.2747525,25.7313119 L23.9476485,25.7313119 C25.2568069,25.7313119 25.9113861,27.0950495 25.9113861,28.4584158 C25.9113861,29.7675743 24.9842822,31.1313119 23.9476485,31.1313119 L21.2747525,31.1313119 L21.2747525,38.1679455 C21.2747525,39.4225248 19.8022277,40.077104 18.3839109,40.077104 C16.9113861,40.077104 15.4930693,39.4225248 15.4930693,38.1679455 L15.4930693,31.1313119 Z" id="Path"></path>
                <path d="M29.0212871,28.240099 L29.0212871,12.3668317 C29.0212871,3.53019802 34.3125,0.202722772 41.239604,0.202722772 C48.1125,0.202722772 53.5125,3.53019802 53.5125,12.3668317 L53.5125,28.240099 C53.5125,37.0767327 48.1125,40.4042079 41.239604,40.4042079 C34.3125,40.4042079 29.0212871,37.0767327 29.0212871,28.240099 Z M47.7308168,12.367203 C47.7308168,7.56683168 45.2762376,5.33056931 41.239604,5.33056931 C37.1487624,5.33056931 34.8029703,7.56683168 34.8029703,12.367203 L34.8029703,28.2404703 C34.8029703,33.0408416 37.1483911,35.277104 41.239604,35.277104 C45.2762376,35.277104 47.7308168,33.0408416 47.7308168,28.2404703 L47.7308168,12.367203 Z" id="Shape"></path>
                <path d="M71.8418317,31.1313119 L58.4235149,31.1313119 C57.2777228,31.1313119 56.405198,30.312995 56.405198,29.0042079 C56.405198,28.6221535 56.5143564,28.1858911 56.7326733,27.8042079 L69.9330446,1.7855198 C70.5330446,0.639727723 71.5147277,0.203465347 72.442203,0.203465347 C73.5330446,0.203465347 75.3330446,1.07636139 75.3330446,2.43972772 C75.3330446,2.71262376 75.2238861,2.9855198 75.0605198,3.31262376 L63.8238861,25.7313119 L71.842203,25.7313119 L71.842203,18.2034653 C71.842203,16.840099 73.2601485,16.2943069 74.7330446,16.2943069 C76.1513614,16.2943069 77.6242574,16.840099 77.6242574,18.2034653 L77.6242574,25.7313119 L80.2971535,25.7313119 C81.6063119,25.7313119 82.2608911,27.0950495 82.2608911,28.4584158 C82.2608911,29.7675743 81.3337871,31.1313119 80.2971535,31.1313119 L77.6242574,31.1313119 L77.6242574,38.1679455 C77.6242574,39.4225248 76.1513614,40.077104 74.7330446,40.077104 C73.2601485,40.077104 71.842203,39.4225248 71.842203,38.1679455 L71.842203,31.1313119 L71.8418317,31.1313119 Z" id="Path"></path>
            </g>
        </g>
    </g>
</svg>