<?xml version="1.0" encoding="UTF-8"?>
<svg width="150px" height="150px" viewBox="0 0 150 150" version="1.1" xmlns="http://www.w3.org/2000/svg" xmlns:xlink="http://www.w3.org/1999/xlink">
    <title>Artboard</title>
    <g id="Artboard" stroke="none" stroke-width="1" fill="none" fill-rule="evenodd">
        <g id="email" fill-rule="nonzero">
            <g id="Group" transform="translate(0.000000, 40.429688)" fill="#D8C782">
                <polygon id="Path" points="124.137891 0.235839844 124.137891 21.6392578 124.137891 43.1900391 90.9257812 70.8676758 150 109.570312 150 21.6392578"></polygon>
                <polygon id="Path" points="25.8621094 21.6392578 25.8621094 0.235839844 0 21.6392578 0 109.570312 59.0742187 70.8676758 25.8621094 43.1900391"></polygon>
            </g>
            <g id="Group" fill="#F7E6A1">
                <polygon id="Path" points="124.137891 62.0689453 150 62.0689453 124.137891 40.6655273"></polygon>
                <polygon id="Path" points="25.8621094 40.6655273 0 62.0689453 25.8621094 62.0689453"></polygon>
                <polygon id="Path" points="93.103418 15.5173828 75 0 56.896582 15.5173828"></polygon>
            </g>
            <g id="Group" transform="translate(0.000000, 61.816406)" fill="#D8C782">
                <polyline id="Path" points="25.8621094 0.252539062 0 0.252539062 0 88.1835938 150 88.1835938 150 0.252539062 124.137891 0.252539062"></polyline>
                <polygon id="Path" points="124.137891 0.252539062 124.137891 21.8033203 90.9257812 49.480957 150 88.1835938 150 0.252539062"></polygon>
                <polygon id="Path" points="25.8621094 21.8033203 25.8621094 0.252539062 0 0.252539062 0 88.1835938 59.0742187 49.480957"></polygon>
            </g>
            <path d="M95.2708008,15.5173828 L25.8621094,15.5173828 L25.8621094,83.6200195 L59.0742188,111.29502 L67.6655273,105.664746 C72.1189453,102.747656 77.8810547,102.747656 82.3344727,105.664746 L90.9257812,111.29502 L124.137891,83.6200195 L124.137891,15.5173828 L95.2708008,15.5173828 Z" id="Path" fill="#E7ECED"></path>
            <g id="Group" transform="translate(0.000000, 61.816406)" fill="#F7E6A1">
                <polygon id="Path" points="90.9257812 49.480957 150 88.1835938 150 0.252539062"></polygon>
                <polygon id="Path" points="0 0.252539062 0 88.1835938 59.0742187 49.480957"></polygon>
            </g>
            <circle id="Oval" fill="#25AE88" cx="118.965527" cy="25.8621094" r="25.8621094"></circle>
            <path d="M95.6897461,64.6552734 L77.5863281,64.6552734 C76.1586914,64.6552734 75,63.4992187 75,62.0689453 C75,60.6386719 76.1586914,59.4826172 77.5863281,59.4826172 L95.6897461,59.4826172 C97.1173828,59.4826172 98.2760742,60.6386719 98.2760742,62.0689453 C98.2757812,63.4992187 97.1170898,64.6552734 95.6897461,64.6552734 Z" id="Path" fill="#DD352E"></path>
            <path d="M67.2413086,64.6552734 L38.7931641,64.6552734 C37.3655273,64.6552734 36.2068359,63.4992187 36.2068359,62.0689453 C36.2068359,60.6386719 37.3655273,59.4826172 38.7931641,59.4826172 L67.2413086,59.4826172 C68.6689453,59.4826172 69.8276367,60.6386719 69.8276367,62.0689453 C69.8276367,63.4992187 68.6689453,64.6552734 67.2413086,64.6552734 Z" id="Path" fill="#23A24D"></path>
            <path d="M103.448145,90.5173828 L85.3447266,90.5173828 C83.9170898,90.5173828 82.7583984,89.3613281 82.7583984,87.9310547 C82.7583984,86.5007813 83.9170898,85.3447266 85.3447266,85.3447266 L103.448145,85.3447266 C104.875781,85.3447266 106.034473,86.5007813 106.034473,87.9310547 C106.034473,89.3613281 104.875781,90.5173828 103.448145,90.5173828 Z" id="Path" fill="#DC691D"></path>
            <path d="M75,90.5173828 L46.5518555,90.5173828 C45.1242187,90.5173828 43.9655273,89.3613281 43.9655273,87.9310547 C43.9655273,86.5007813 45.1242187,85.3447266 46.5518555,85.3447266 L75,85.3447266 C76.4276367,85.3447266 77.5863281,86.5007813 77.5863281,87.9310547 C77.5863281,89.3613281 76.4276367,90.5173828 75,90.5173828 Z" id="Path" fill="#EBBA16"></path>
            <path d="M111.206836,64.6552734 L106.034473,64.6552734 C104.606836,64.6552734 103.448145,63.4992187 103.448145,62.0689453 C103.448145,60.6386719 104.606836,59.4826172 106.034473,59.4826172 L111.206836,59.4826172 C112.634473,59.4826172 113.793164,60.6386719 113.793164,62.0689453 C113.793164,63.4992187 112.634473,64.6552734 111.206836,64.6552734 Z" id="Path" fill="#6B1E31"></path>
            <path d="M72.4136719,77.5863281 L54.3102539,77.5863281 C52.8826172,77.5863281 51.7239258,76.4302734 51.7239258,75 C51.7239258,73.5697266 52.8826172,72.4136719 54.3102539,72.4136719 L72.4136719,72.4136719 C73.8413086,72.4136719 75,73.5697266 75,75 C75,76.4302734 73.8413086,77.5863281 72.4136719,77.5863281 Z" id="Path" fill="#FC3952"></path>
            <path d="M111.206836,77.5863281 L82.7586914,77.5863281 C81.3310547,77.5863281 80.1723633,76.4302734 80.1723633,75 C80.1723633,73.5697266 81.3310547,72.4136719 82.7586914,72.4136719 L111.206836,72.4136719 C112.634473,72.4136719 113.793164,73.5697266 113.793164,75 C113.793164,76.4302734 112.634473,77.5863281 111.206836,77.5863281 Z" id="Path" fill="#366DB6"></path>
            <path d="M54.3102539,51.7242187 L36.2068359,51.7242187 C34.7791992,51.7242187 33.6205078,50.5681641 33.6205078,49.1378906 C33.6205078,47.7076172 34.7791992,46.5515625 36.2068359,46.5515625 L54.3102539,46.5515625 C55.7378906,46.5515625 56.896582,47.7076172 56.896582,49.1378906 C56.896582,50.5681641 55.7378906,51.7242187 54.3102539,51.7242187 Z" id="Path" fill="#EBBA16"></path>
            <path d="M93.103418,51.7242187 L64.6552734,51.7242187 C63.2276367,51.7242187 62.0689453,50.5681641 62.0689453,49.1378906 C62.0689453,47.7076172 63.2276367,46.5515625 64.6552734,46.5515625 L93.103418,46.5515625 C94.5310547,46.5515625 95.6897461,47.7076172 95.6897461,49.1378906 C95.6897461,50.5681641 94.5310547,51.7242187 93.103418,51.7242187 Z" id="Path" fill="#DC691D"></path>
            <path d="M43.9655273,77.5863281 L38.7931641,77.5863281 C37.3655273,77.5863281 36.2068359,76.4302734 36.2068359,75 C36.2068359,73.5697266 37.3655273,72.4136719 38.7931641,72.4136719 L43.9655273,72.4136719 C45.3931641,72.4136719 46.5518555,73.5697266 46.5518555,75 C46.5518555,76.4302734 45.3931641,77.5863281 43.9655273,77.5863281 Z" id="Path" fill="#75348B"></path>
            <path d="M85.3447266,38.7931641 L54.3102539,38.7931641 C52.8826172,38.7931641 51.7239258,37.6371094 51.7239258,36.2068359 C51.7239258,34.7765625 52.8826172,33.6205078 54.3102539,33.6205078 L85.3447266,33.6205078 C86.7723633,33.6205078 87.9310547,34.7765625 87.9310547,36.2068359 C87.9310547,37.6371094 86.7723633,38.7931641 85.3447266,38.7931641 Z" id="Path" fill="#366DB6"></path>
            <path d="M43.9655273,38.7931641 L38.7931641,38.7931641 C37.3655273,38.7931641 36.2068359,37.6371094 36.2068359,36.2068359 C36.2068359,34.7765625 37.3655273,33.6205078 38.7931641,33.6205078 L43.9655273,33.6205078 C45.3931641,33.6205078 46.5518555,34.7765625 46.5518555,36.2068359 C46.5518555,37.6371094 45.3931641,38.7931641 43.9655273,38.7931641 Z" id="Path" fill="#CB465F"></path>
            <path d="M116.379199,36.2068359 C115.693945,36.2068359 115.036816,35.9378906 114.550781,35.4492188 L106.79209,27.6905273 C105.780762,26.6791992 105.780762,25.0447266 106.79209,24.0336914 C107.800781,23.0223633 109.440234,23.0223633 110.448926,24.0336914 L116.205762,29.7905273 L127.323926,16.4481445 C128.239453,15.3489258 129.868652,15.2068359 130.965234,16.1170898 C132.061816,17.0326172 132.211816,18.6618164 131.296289,19.7610352 L118.365234,35.278418 C117.899707,35.8371094 117.22207,36.1731445 116.495508,36.2041992 C116.456836,36.2068359 116.418164,36.2068359 116.379199,36.2068359 Z" id="Path" fill="#FFFFFF"></path>
        </g>
    </g>
</svg>