<?xml version="1.0" encoding="UTF-8"?>
<svg width="195px" height="199px" viewBox="0 0 195 199" version="1.1" xmlns="http://www.w3.org/2000/svg" xmlns:xlink="http://www.w3.org/1999/xlink">
    <title>Artboard</title>
    <g id="Artboard" stroke="none" stroke-width="1" fill="none" fill-rule="evenodd">
        <g id="Group-2">
            <g id="Group" fill-rule="nonzero">
                <ellipse id="Oval" fill="#3880FF" cx="97.5" cy="99.3935831" rx="97.5" ry="99.3935831"></ellipse>
                <path d="M61.4405182,35.9504006 L58.5562939,46.1026391 C58.3132349,46.8635374 57.5849269,53.7829852 57.3745385,54.9405935 L56.0230952,59.3163702 L55.2858937,63.8307321 C54.8402778,64.4407166 54.5303415,72.8024011 54.7121299,69.7024796 L52.3625207,68.2719309 C52.2443357,68.2932605 50.55473,68.1870707 50.0720993,70.1605183 L50.1388685,71.9152333 L49.9094729,74.7434416 L49.6900987,78.7525833 L50.2727639,84.6011396 L50.1585066,88.508277 C50.043654,90.048651 51.4056741,91.1611343 52.2777798,91.5375353 C53.1718562,92.5218224 53.5577978,92.6600695 54.3342961,92.6408843 L56.0230952,92.1205023 L57.2991207,91.6980357 L58.2410424,93.9492405 L59.0950692,101.222692 C59.1834283,117.649016 60.071407,126.025516 61.7590052,126.35219 L75.3047834,135.561108 C88.1393781,140.76359 96.8223221,143.364832 101.353615,143.364832 C105.884909,143.364832 113.333709,139.253441 123.700016,131.030666 L129.358484,125.897187 C132.946053,121.184959 135.188355,117.959976 136.085391,116.222236 C137.430944,113.615628 138.255641,106.005777 138.762707,104.782253 C140.400961,98.3958645 140.341779,98.7263134 140.532836,97.0628572 C141.145963,94.5412206 140.548807,91.653771 140.532836,88.4274649 L141.729649,74.6270683 C141.754176,71.7982981 140.42247,68.1821167 139.984757,66.2132559 C139.845396,64.1946094 140.61862,63.2590236 140.778782,61.8779165 C140.829293,61.4423561 140.90781,60.9838653 140.924169,60.3127665 C140.929751,60.0838282 140.902514,59.5582105 140.924169,59.3163702 C140.942448,59.1122495 141.021183,58.101384 140.924169,57.9317736 L140.924169,54.9405935 C141.059963,53.7029798 141.133895,52.8860087 141.145963,52.4896809 C141.153127,52.2544272 141.17975,52.0370288 141.145963,51.8560286 C141.051818,51.3516821 141.124421,51.2242234 141.145963,50.7798648 C141.169299,50.2984998 141.145963,49.6962709 141.145963,49.0304116 C141.145963,46.0033594 140.294947,40.5658397 138.56315,35.9504006 C137.408619,32.8734414 135.530456,30.3025482 132.928664,28.2377218 C132.207605,28.14427 118.792361,19.0554128 113.741968,17.8481913 C108.802337,16.6674455 99.0872186,16.6674455 84.5966147,17.8481913 C77.08633,17.9745948 69.3676311,24.0086647 61.4405182,35.9504006 Z" id="path5582" fill="#FFDAB9"></path>
            </g>
            <g id="Group-5" transform="translate(46.312500, 8.524911)">
                <g id="Face-" opacity="0.47172619" transform="translate(44.815099, 97.127677)" fill="#3C2516" fill-rule="nonzero">
                    <path d="M2.31950574,1.85192793 C3.5754147,1.85192793 4.58227477,1.71829982 4.58227477,1.56743508 C4.58227477,1.52619607 3.9782022,0.934024188 3.320475,0.614728152 C2.77389912,0.349390788 2.28207939,0.151303636 2.12754713,0.165058574 C1.44977588,0.225387302 0.360277125,0.872865262 0.360277125,1.11894693 C0.360277125,1.26981167 1.06359691,1.85192793 2.31950574,1.85192793 Z" id="Oval"></path>
                    <path d="M13.3270545,1.85192793 C14.3317816,1.85192793 15.1372698,1.78511394 15.1372698,1.7096815 C15.1372698,1.68906207 14.6540116,1.39297606 14.1278299,1.23332811 C13.6905692,1.10065941 13.2971134,1.00161578 13.1734876,1.00849331 C12.6312706,1.03865762 11.7596716,1.36239659 11.7596716,1.4854375 C11.7596716,1.56086981 12.3223274,1.85192793 13.3270545,1.85192793 Z" id="Oval" transform="translate(13.448471, 1.430042) scale(-1, 1) translate(-13.448471, -1.430042) "></path>
                </g>
                <g id="Skin" transform="translate(4.644197, 29.953911)" fill-rule="nonzero">
                    <path d="M56.1525693,36.1533323 C61.8559144,34.7519661 67.1178083,32.9297277 71.0407108,31.4662891 C75.3776766,32.7227741 80.8643112,30.8151414 84.3593698,32.4550567 L87.8175521,33.105529 L87.0124286,34.2637452 L72.0269413,33.7411955 L58.4186523,36.5289219 L56.1525693,36.1533323 Z" id="path5584" fill="#000000" opacity="0.64899998"></path>
                    <path d="M49.7008784,40.3437539 C46.893672,48.8404502 45.0354899,54.330736 44.1263322,56.8146114 C43.5170499,58.4792091 41.9134403,60.2866375 41.6350218,61.2234691 C41.4582477,61.8182842 40.3945092,62.4672884 40.0646195,62.7887575 C39.844693,63.0030704 39.5453888,63.2736511 39.1667067,63.6004996 C38.6588752,64.1222674 38.0644427,64.5485364 37.190044,65.6542834 C36.477243,66.5556772 37.4181009,67.4936467 38.3719335,68.721678 C38.696919,68.7457641 41.114093,67.8214515 41.5075857,67.9159794 C42.1338251,68.0664192 42.7491704,68.2610862 43.2571039,68.5801127 C43.6107782,68.8022507 43.8980546,69.0942399 44.1776697,69.2421019 C45.536596,69.9607094 48.0008847,70.1728584 49.1405132,69.3194112 C50.2348598,68.4998746 49.3540213,58.5035197 49.4072567,55.8067183 C49.5246775,49.8584172 49.6225513,44.7040956 49.7008784,40.3437539 Z" id="path5628" fill="#907B7B" opacity="0.311616443" transform="translate(43.320334, 55.109487) rotate(-3.000000) translate(-43.320334, -55.109487) "></path>
                    <polygon id="path5606" fill="#D2B48C" opacity="0.50199998" points="38.420179 30.6039074 47.8895032 32.3100612 58.294638 29.4386456 60.3745669 28.9349727 51.0359151 29.8780383 48.0845372 30.9004253"></polygon>
                    <path d="M60.3745669,39.5519829 C65.6629795,37.5756342 68.4264694,36.5584963 68.6650368,36.5005694 C73.3251739,35.3690341 76.0134815,36.3568317 78.6462154,35.8559429 C81.4811164,35.316591 83.8111527,34.9911433 85.6363243,34.8795993 C86.3157542,34.8304737 86.9550975,34.8304737 87.5543541,34.8795993 C88.153611,34.9287251 89.2264764,34.9159844 90.7729503,34.8413776 L90.5588772,37.8569781 L89.9535618,42.4353268 L84.7562085,38.5708282 C82.3029375,38.2145153 80.4051127,37.9765653 79.0627334,37.8569781 C77.7203542,37.7373908 76.5241723,37.6997081 75.4741874,37.7439301 C72.962465,37.9184028 71.1802791,38.0565541 70.1276297,38.1583837 C69.0749802,38.2602132 65.8239593,38.7247463 60.3745669,39.5519829 Z" id="Path-15" fill="#D2B48C" opacity="0.315034412"></path>
                    <path d="M0.166714387,35.6851498 C0.887062998,35.7026923 1.33483165,35.9107631 1.51002036,36.3093616 C1.68520907,36.7079601 1.93671319,37.4430842 2.26453274,38.5147336 C1.47304107,40.1841376 1.0879086,41.4475269 1.1091353,42.3049015 C1.13036202,43.1622761 1.26399036,44.0146097 1.51002036,44.8619024 L3.37759817,50.6525615 C2.24923972,50.9465438 1.49308545,50.9465438 1.1091353,50.6525615 C0.725185166,50.3585794 0.520917316,49.6232055 0.496331752,48.4464395 L0.166714387,44.6879586 L0,35.8628665 L0.166714387,35.6851498 Z" id="Path-16" fill="#856262" opacity="0.199172247"></path>
                    <path d="M3.94423651,33.5313579 C4.61266842,39.5417991 5.06789578,43.9483346 5.30991858,46.7509646 C5.55194138,49.5535946 6.29539001,52.2465812 7.5402645,54.8299239 C7.91942042,58.4221574 8.24117068,61.0395204 8.50551529,62.6820127 C8.76985988,64.3245051 8.88854223,67.0610624 8.86156232,70.8916845 C10.4444917,77.910461 10.9473518,81.7641482 10.3701424,82.4527463 C9.55369764,83.4267468 11.6023695,88.822579 15.2465571,91.7153916 C19.0070086,94.7004965 24.388287,95.1590769 24.9369628,94.4667891 C25.275989,94.0390252 31.6280005,81.716496 35.8656577,79.3800823 C38.3467419,78.0121477 40.0537572,76.0605507 42.2312521,75.2835811 C44.021874,74.6446551 47.0858314,75.026275 47.0858314,74.1836181 C47.0858314,72.8136702 47.0858314,70.4231816 47.0858314,69.8869705 C47.0858314,69.4912688 47.0858314,69.6233812 46.2947268,69.6233812 C46.0255292,69.6233812 45.3443574,69.2941306 44.7826926,69.1713382 C43.9703478,68.9937417 42.6205399,67.7930836 41.7869581,67.9870188 C40.9562582,68.1802834 40.0576461,68.5052779 39.0911221,68.9620024 C38.6164035,68.4130365 38.2917185,68.0085328 38.1170667,67.748491 C37.7050585,67.1350451 37.4599846,66.4677248 37.523923,66.3627565 C38.6631439,64.4924878 40.9533776,62.6820127 41.7869581,61.6367678 C41.9940923,61.3770376 42.5984025,59.9388871 43.1446948,59.0306974 C43.4809787,58.4716384 43.807779,57.6613727 44.214467,56.7700919 C44.5423206,56.0515813 44.9467208,54.6498949 45.4276672,52.5650325 L48.6805924,39.9040105 C48.4263691,32.9308915 48.0241992,27.72763 47.4740828,24.2942259 C47.0972249,21.9421689 52.4845201,5.48497939 49.4842088,5.04856673 C45.4751996,4.4654331 30.8082799,5.19198316e-14 29.233052,5.19198316e-14 C28.7290426,5.19198316e-14 22.7109307,3.15539032 18.5767898,2.12017997 C14.7783156,1.16902229 12.0960445,0.36916754 11.9499392,0.708441488 C11.3810612,2.02944399 10.0051535,10.0088119 7.98633369,16.7755611 C6.89306514,20.440016 4.89034922,23.3379992 4.36834032,25.5668214 C4.13287494,26.5721881 4.23311371,26.3703502 3.94423651,28.0475 C3.75165172,29.1656 3.75165172,30.9935527 3.94423651,33.5313579 Z" id="Path-5" fill="#D2B48C" opacity="0.379859561"></path>
                    <path d="M41.7977772,35.7703377 L25.5582295,33.9976055 L18.5379509,35.6518737 C18.5379509,35.6518737 13.6295954,36.9477439 12.2437933,38.0681725 L15.4780948,38.6383521 L20.3047702,36.4743027 C21.7267504,36.6511577 24.2222806,37.0819329 31.2366773,36.5191669 L40.366899,37.0670043 L41.7977772,35.7703377 Z" id="path5598" fill="#000000" opacity="0.6520004"></path>
                    <polygon id="path5626" fill="#D2B48C" opacity="0.50199998" points="28.2873846 27.6506947 47.4081266 29.3568587 68.4185253 26.4854504 72.6183602 25.9817701 53.7614677 26.9248512 47.8019344 27.9472211"></polygon>
                    <polygon id="Rectangle" fill="#D1B19F" opacity="0.367327009" points="47.1139559 69.4360352 50.6639723 69.937239 50.6639723 74.9205542 47.1139559 74.4358304"></polygon>
                </g>
                <g id="Hair">
                    <path d="M8.07345394,58.8560825 L8.98463915,66.197167 L10.0664255,71.3510531 L8.34156333,80.3722721 L5.84442779,64.3488942 L6.6429085,60.5514109 L7.36947524,59.390447 C7.40991212,59.0323979 7.74641049,58.9485696 8.07345394,58.8560825 Z" id="path5608" fill="#696969" fill-rule="nonzero" opacity="0.01700003"></path>
                    <path d="M94.5063792,83.449106 C95.2100455,83.5073137 95.9137118,83.5655213 96.6173781,83.6237288" id="Path-10" fill="#01030D" fill-rule="nonzero"></path>
                    <path d="M15.6750411,28.0583995 L18.5104208,39.6332548 L17.0703657,48.4377526 L12.8705569,56.660119 C12.0155288,59.5417781 11.4665043,61.6526597 11.2234833,62.992764 C10.9804624,64.3328683 10.9804624,66.1937862 11.2234833,68.5755179 C12.0771247,79.3189277 12.4345906,84.5276186 12.2958811,84.2015903 C12.0507609,83.6254502 10.1080956,82.0139571 9.74447952,80.3722721 C9.38161426,78.7339772 8.56533484,73.210354 8.37762641,72.6950724 C7.83396374,71.202655 7.69323049,69.1209746 7.95542663,66.4500319 L2.92194746,61.0615821 C2.60249685,57.5122806 2.28832545,55.3945877 1.97943322,54.7085039 C1.51609491,53.6793778 -1.02899605,42.0032271 0.46454094,38.3961223 C0.845562325,37.4759013 3.94390877,30.2757185 7.23690017,28.0583995 C8.66418774,27.0973426 11.4769014,27.0973426 15.6750411,28.0583995 Z" id="Combined-Shape" stroke="#543A2C" fill="#2B1E0D" fill-rule="nonzero"></path>
                    <path d="M88.0870495,30.5501388 C91.6670095,32.2242641 93.8067861,34.1643446 94.5063792,36.37038 C95.2059725,38.5764156 95.3467057,41.7824747 94.9285791,45.9885575 L97.9632099,39.037063 L102.528175,25.6588007 C98.4780152,21.1627798 95.66335,19.0136061 94.0841795,19.2112795 C93.0378411,19.3422555 91.1779737,20.6609405 89.762968,23.9370236 C89.2825881,25.0492205 88.7239486,27.2535923 88.0870495,30.5501388 Z" id="Path-28" fill="#2B1F10" fill-rule="nonzero"></path>
                    <path d="M21.4910169,25.6358804 L33.8016547,22.4149802 L42.5845215,24.4208011 C42.9324962,22.8457505 43.0608388,21.701018 42.9695493,20.9866036 C42.8782597,20.2721892 42.4761591,19.2745442 41.7632474,17.9936687 C53.2232085,14.49434 58.5818792,12.50536 57.8392591,12.0267289 C56.8565765,11.3933736 46.6548284,7.22016044 40.6391983,7.41184983 C37.6843155,7.50600783 32.497547,9.43679938 25.0788929,13.2042245 L18.337448,17.4626851 C13.8071758,23.63406 11.34533,27.2362791 10.9519103,28.2693426 C10.5584908,29.302406 13.0203366,29.3727203 18.337448,28.4802856 L21.4910169,25.6358804 Z" id="Path-32" fill="#362510" fill-rule="nonzero"></path>
                    <path d="M26.979614,32.3860574 L39.2902517,29.1651573 L48.0731185,31.1709783 C48.4210932,29.5959276 48.5494358,28.4511951 48.4581463,27.7367806 C48.3668568,27.0223663 47.9647561,26.0247213 47.2518444,24.7438459 C45.6427255,23.1509913 44.466856,22.1152484 43.7242357,21.6366173 C42.0175114,20.5366048 40.3863549,20.270135 39.4729669,20.0325102 C34.7458125,18.8027057 31.6193164,20.7151043 30.8363262,20.7563735 C29.6782856,20.817411 28.2167712,21.6135148 26.451783,23.1446851 C24.7887248,25.6952266 23.7604859,27.487029 23.3670663,28.5200925 C22.9736468,29.5531558 23.1266397,31.7899459 23.8260449,35.2304627 L26.979614,32.3860574 Z" id="Path-32" stroke="#979797" fill="#32220E" fill-rule="nonzero"></path>
                    <path d="M24.8686151,24.7921083 L37.1792528,21.5712081 L45.9621197,23.5770291 C46.3100944,22.0019783 46.4384369,20.8572458 46.3471474,20.1428314 C46.2558579,19.4284171 45.8537573,18.4307722 45.1408455,17.1498966 C43.5317266,15.557042 42.3558571,14.5212992 41.6132369,14.042668 C39.9065126,12.9426557 38.275356,12.6761857 37.3619681,12.438561 C32.6348135,11.2087566 29.5083175,13.121155 28.7253274,13.1624243 C27.5672868,13.2234617 26.1057722,14.0195656 24.3407841,15.550736 C22.6777259,18.1012774 21.6494871,19.8930798 21.2560675,20.9261432 C20.8626478,21.9592066 21.0156408,24.1959966 21.7150461,27.6365135 L24.8686151,24.7921083 Z" id="Path-32" fill="#32220E" fill-rule="nonzero"></path>
                    <path d="M32.4047927,-10.5645642 C29.8764452,-0.58880819 29.5058585,6.27064903 31.2930323,10.0138074 C33.080206,13.7569658 38.8338852,22.0299782 48.5540696,34.8328447 C49.7941776,10.9709142 48.5661042,-1.03464363 44.8698493,-1.18382891 C41.1735947,-1.33301422 37.0185757,-4.45992599 32.4047927,-10.5645642 Z" id="Path-27" stroke="#543A2C" fill="#2B1F10" fill-rule="nonzero" transform="translate(39.602117, 12.134140) rotate(97.000000) translate(-39.602117, -12.134140) "></path>
                    <path d="M15.5388068,41.5554602 C12.7647574,44.4939686 11.9584484,46.5773151 13.1198799,47.8054998 C14.2813113,49.0336844 19.5944505,49.9057362 29.0592975,50.4216553 C26.7192081,46.2766174 24.3478981,44.179677 21.9453679,44.1308341 C19.5428375,44.0819913 17.4073171,43.2235333 15.5388068,41.5554602 Z" id="Path-27" fill="#513729" fill-rule="nonzero" transform="translate(20.832519, 45.988558) rotate(90.000000) translate(-20.832519, -45.988558) "></path>
                    <path d="M65.0551218,-0.644824145 C58.8188001,5.00790551 55.0306999,9.05008498 53.6908206,11.4817142 C50.2052321,17.8074032 54.1930449,32.0746136 55.5718922,35.0051353 C57.0182696,38.0791815 61.902142,40.0467051 69.599416,39.2400987 C72.1805572,38.969618 76.739013,37.7950464 83.2747832,35.7163843 C82.9132728,30.6195489 82.3884447,27.0471577 81.7002988,24.9992109 C77.6694039,13.0031254 72.2973409,7.26778987 68.717112,7.1215537 C64.2200694,6.93786983 62.9994059,4.34907722 65.0551218,-0.644824145 Z" id="Path-27" stroke="#3F2C21" fill="#32220E" fill-rule="nonzero" transform="translate(67.786391, 19.388332) rotate(89.000000) translate(-67.786391, -19.388332) "></path>
                    <path d="M18.706762,17.1124523 C7.56665675,25.7506118 2.81915118,31.7491838 4.46424535,35.1081685 C5.11434142,36.435547 9.0105014,46.6310854 11.4968878,47.6544421 C13.4831481,48.471955 21.1901428,52.3016106 32.0058262,51.0686018 C34.0051373,50.8406766 37.3757255,47.6245894 42.1175904,41.4203406 C35.4189788,31.9100357 30.6398548,26.1553873 27.7802183,24.1563955 C24.9205818,22.1574038 21.8960964,19.8094229 18.706762,17.1124523 Z" id="Path-27" fill="#32220E" fill-rule="nonzero" transform="translate(23.132160, 34.211761) rotate(97.000000) translate(-23.132160, -34.211761) "></path>
                    <path d="M26.5022683,24.7820135 C14.9829628,23.2598979 18.8709133,39.7508607 13.4440237,46.0797213" id="Path-25" stroke="#50352D"></path>
                    <path d="M82.6851271,19.1928767 C84.6456641,20.6797911 85.7917414,21.9088085 86.1233589,22.8799288 C87.234421,26.1336023 88.0328602,28.9124036 88.6271712,30.3190525 C89.4918569,32.3656397 92.7647673,33.6793538 98.4459021,34.2601948 C96.7026735,27.3535405 94.9374867,23.8591936 93.1503418,23.7771544 C91.3631969,23.6951151 87.8747919,22.1670226 82.6851271,19.1928767 Z" id="Path-27" fill="#23190C" fill-rule="nonzero" transform="translate(90.565515, 26.726536) rotate(133.000000) translate(-90.565515, -26.726536) "></path>
                    <path d="M27.706432,4.08430687 C26.5871764,5.39590769 25.7147734,6.63817804 25.0892234,7.81111797 C23.1534415,11.4408133 20.0166979,15.2054331 19.5901546,16.3806953 C16.7456006,24.2183426 19.1260844,31.2617253 20.3060644,33.7236781 C22.2122158,37.7007413 30.931391,40.524969 46.46359,42.1963615 C42.6227354,28.7741839 38.7309899,21.9839145 34.7883535,21.8255531 C30.8457171,21.6671917 28.4850767,15.753443 27.706432,4.08430687 Z" id="Path-27" fill="#32220E" fill-rule="nonzero" transform="translate(32.355751, 23.140334) scale(-1, 1) rotate(94.000000) translate(-32.355751, -23.140334) "></path>
                    <path d="M67.1844512,10.1008031 C66.0912722,18.0667327 66.3640383,24.5061121 68.0027494,29.4189405 C69.6414605,34.3317691 77.135117,37.8209975 90.483719,39.8866254 C87.1809815,23.3065075 83.8354514,14.9185097 80.4471293,14.722632 C77.058807,14.5267544 72.6379143,12.9861448 67.1844512,10.1008031 Z" id="Path-27" fill="#32220E" fill-rule="nonzero" transform="translate(78.506004, 24.993714) rotate(102.000000) translate(-78.506004, -24.993714) "></path>
                    <path d="M72.1297916,16.1906346 C76.5365128,12.1676925 78.4424487,13.4010358 84.7957847,13.7251217" id="Path-26" stroke="#50352D"></path>
                    <path d="M37.4197377,33.4951047 C29.2872637,34.8565416 32.3867322,42.8553579 24.0319909,45.200977 L14.6796762,48.309797 L11.8987724,49.7142624" id="Path-30" stroke="#50352D"></path>
                    <path d="M51.4420029,34.9696767 C54.2925332,34.9411704 56.4933712,34.2902867 58.4673645,33.5720142 C59.9491858,33.0328272 62.7488287,32.9764487 64.4522594,32.5936748" id="Path-33" stroke="#2C201A"></path>
                    <path d="M62.15625,32.896494 C74.8494884,32.7634868 73.1935153,33.4409495 79.9742572,32.2694911 C81.6639533,31.9775747 83.3895315,30.9434078 86.5603017,30.4845051 C87.5315443,30.3439382 89.0611677,30.6468431 90.2160849,30.4845051" id="Path-23" stroke="#2C201A"></path>
                    <path d="M15.84375,54.5937927 C19.6067841,51.5848544 22.2018253,50.8304518 23.15625,46.0688815" id="Path-40" stroke="#7D564B"></path>
                    <path d="M10.7185002,35.221301 C12.0819386,33.4662812 17.5410057,25.5371564 21.0769138,24.8866277 C25.1723506,24.1331582 34.8284699,25.2570192 38.408543,25.1325732" id="Path-35" stroke="#50352D" transform="translate(24.563522, 29.922959) rotate(33.000000) translate(-24.563522, -29.922959) "></path>
                    <path d="M80.5737869,17.0332279 C86.5203806,20.9552901 94.6407849,28.9997122 102.528175,26.1664382" id="Path-36" stroke="#50352D"></path>
                    <path d="M7.95542663,28.2073801 C7.95542663,25.1459881 9.10368253,23.3353209 10.8058573,21.1489647 C12.9246568,18.4274751 18.8694726,16.2353588 19.9051376,15.0508872 C22.5991364,11.9698087 24.6159114,9.1613825 33.2874127,9.52769242" id="Path-34" stroke="#50352D"></path>
                    <path d="M50.975044,35.5058254 C62.6177004,36.1680806 63.1389513,21.41861 71.5650278,16.1178987 C78.4405177,11.7926366 82.8170154,21.1811609 89.0624662,21.3193003 C90.4006782,21.3488994 91.8007812,20.9564355 92.9293034,20.2371603 C94.0791505,19.5042938 94.715414,18.1771461 95.6084693,17.147139" id="Path-37" stroke="#50352D"></path>
                    <path d="M50.975044,35.8030307 C50.608648,31.4837748 48.4305039,24.3844991 44.4565281,19.6206782 C40.5183347,14.8997518 21.6237302,21.6899393 18.8494744,18.2530887" id="Path-39" stroke="#50352D"></path>
                    <path d="M37.0872107,33.3980427 C39.2575272,33.1316862 40.3842911,32.3003635 41.4979288,32.2772602 C43.1784235,32.2423969 45.7730475,33.8995948 51.8258453,35.8041219" id="Path-29" stroke="#50352D"></path>
                    <path d="M31.5986138,9.13250099 C40.2620723,8.80471291 42.4145988,8.86584402 47.4857895,15.8333103" id="Path-38" stroke="#50352D"></path>
                    <path d="M95.7729786,44.1702554 C96.7676321,40.3604052 97.7843849,39.5294848 98.2357558,38.1932909 C99.2482779,35.1959211 98.8258995,35.328658 102.349812,25.9489691" id="Path-42" stroke="#50352D" stroke-linecap="round"></path>
                </g>
                <g id="Beard" transform="translate(10.554994, 81.845898)" fill-rule="nonzero">
                    <path d="M73.6450093,39.9913041 C75.1194143,40.9452448 77.606933,42.9789857 81.1075657,46.0925272 C81.427405,56.9283497 81.4276158,65.0538482 81.1081979,70.4690226 C80.7887801,75.8841969 79.6145995,82.3659747 77.5856559,89.9143561 C72.7701422,85.6756576 69.8620403,82.6147527 68.8613502,80.7316409 C65.6976336,74.7781178 63.3261523,71.6706021 61.7469056,71.4090939 C61.4841409,62.1080135 61.6611719,56.1772137 62.2779986,53.6166945 C63.2032387,49.7759159 64.0222722,41.1125231 64.1149416,38.8840341 C64.3085344,34.2285651 65.1225738,28.6222143 65.5442372,27.3724773 C65.7119032,26.8755445 66.9272213,29.2399388 67.2808492,29.8564511 C68.2784362,31.5956384 71.4389085,34.7345304 73.7307932,37.5347726 C74.514243,38.4919973 73.0815964,39.6267757 73.6450093,39.9913041 Z" id="Path-11" fill="#73360D" transform="translate(71.488382, 58.609359) scale(-1, 1) rotate(-2.000000) translate(-71.488382, -58.609359) "></path>
                    <path d="M64.2589329,38.1021808 C64.3395706,51.5962776 64.322566,61.6997631 64.2079192,68.4126374 C64.1042531,74.4825576 65.2139204,76.7671917 65.0739152,84.964861 C65.0640916,85.5400588 63.8560561,88.0718512 61.4498089,92.560238 C55.8656616,97.8809587 50.0443197,100.541319 43.9857832,100.541319 C40.347742,100.541319 33.0335567,99.1904559 28.623437,96.4476023 C26.6673157,95.2310017 25.0930217,92.1162162 23.9005548,87.1032459 C23.2255615,60.8286024 23.7352102,45.2693779 25.429501,40.4255725 C26.2323671,38.1302598 34.0253181,42.9719336 44.1309955,42.8529463 C48.0614571,42.8066677 54.7707695,41.2230791 64.2589329,38.1021808 Z" id="Path-18" fill="#73360D"></path>
                    <path d="M6.71129818e-14,14.0197106 L1.84618988,28.5735093 L4.65631916,41.2657502 C7.73937067,37.7099339 9.26546392,35.8875943 9.23459899,35.7987317 C8.57373617,33.8960553 6.50995495,26.3101892 3.04325537,13.0411337 C2.88040576,8.48643111 2.67870893,5.61599643 2.43816483,4.42982969 C1.40462659,-0.666735488 0.22426362,-0.496244724 0.232806258,0.692158806 C0.258898893,4.32201776 0.181296806,8.76453498 6.71129818e-14,14.0197106 Z" id="Path-8" fill="#73360D"></path>
                    <path d="M11.9217192,76.1441724 C11.2354943,74.7853229 10.3946466,73.1733026 9.39917618,71.3081119 L9.54312165,74.2637709 C8.51216908,73.542327 7.48463369,72.9455714 6.46051546,72.4735031 C4.59390703,67.1666428 3.66062239,63.0059052 3.6606615,59.9912904 C3.66080543,48.8986792 3.23511468,39.350477 2.38358922,31.3466837 C9.0021236,35.6168391 12.9640569,37.9973961 14.2693894,38.4883553 C15.9220386,39.1099464 19.418928,39.6724159 24.7600574,40.175764 L24.3372002,90.8415823 C20.2494715,85.3334536 16.8933618,81.1925127 14.2688712,78.4187595 C13.4845485,77.5898303 12.7021647,76.8316345 11.9217192,76.1441724 Z" id="Combined-Shape" fill="#73360D" transform="translate(13.571823, 61.094133) rotate(1.000000) translate(-13.571823, -61.094133) "></path>
                    <polygon id="Path-14" fill="#73360D" points="12.2127095 38.5240668 22.9845753 38.1021808 20.3627721 45.3692662"></polygon>
                    <polygon id="Path-14" fill="#73360D" transform="translate(66.574250, 41.898840) rotate(7.000000) translate(-66.574250, -41.898840) " points="61.1883526 37.7977293 71.9601481 37.257924 69.3375392 46.5397556"></polygon>
                    <path d="M40.1580783,22.9142822 C44.2159547,22.9142822 46.7383382,22.9142822 47.7252288,22.9142822 C48.7121194,22.9142822 53.6873278,25.5657271 62.6508539,30.8686164 C64.8411317,33.9370256 66.1487856,36.139446 66.5738156,37.4758776 C66.9988455,38.8123092 67.6255346,42.1465821 68.4538832,47.4786966 L63.2988814,43.8451539 L59.391713,35.1820295 C52.3529772,30.9890525 48.4777711,28.8722709 47.7660944,28.8316846 C45.6418865,28.7105426 42.9502096,28.7086231 39.6910636,28.825926 L39.6489215,28.8856466 C38.2801652,28.9797664 37.0453585,29.4081371 35.944501,30.1707587 C33.7874469,31.665063 31.2834943,33.7032721 28.432643,36.2853862 L24.0343029,46.5141021 C22.5100844,47.4947181 21.3842184,47.4947181 20.6567048,46.5141021 C19.9291913,45.5334862 19.7018365,44.1910722 19.9746403,42.4868601 L24.788242,31.6591514 C28.1009049,29.1620037 30.4140302,27.5127054 31.7276175,26.7112569 C36.5345032,23.7784703 39.3014198,22.9142822 40.0281135,22.9142822 C40.0710985,22.9142822 40.1144008,22.9142822 40.1580206,22.9148304 L40.1580783,22.9142822 Z" id="Combined-Shape" fill="#6D330B"></path>
                </g>
                <g id="Glasses" transform="translate(51.567089, 79.367064) rotate(-2.000000) translate(-51.567089, -79.367064) translate(6.335130, 65.797477)" fill-rule="nonzero">
                    <path d="M27.569332,26.5788225 C35.6448224,26.5788225 42.1913008,21.1011624 42.1913008,14.3441264 C42.1913008,12.8197169 44.1752198,9.09026427 43.5664428,7.74429403 C41.4767792,3.12417042 33.8229653,2.10943035 27.569332,2.10943035 C22.5368316,2.10943035 14.7937662,2.90488519 12.1631764,6.14339442 C10.5725441,8.10161576 11.3014586,11.7017404 11.3014586,14.2479128 C11.3014586,21.0049489 19.4938418,26.5788225 27.569332,26.5788225 Z" id="Oval" fill="#78D0F2" opacity="0.333449591"></path>
                    <path d="M69.4559283,26.5788225 C77.5729605,26.5788225 84.1531148,20.8162344 84.1531148,13.7077218 C84.1531148,12.1040183 86.1472395,8.18057305 85.5353308,6.76459032 C83.4349178,1.90414469 76.191283,1.2656582 69.90548,1.2656582 C64.8470915,1.2656582 57.3027902,2.32588085 54.658668,5.73284556 C53.0598534,7.79292646 53.1038808,10.9278888 53.1038808,13.6065038 C53.1038808,20.7150164 61.3388965,26.5788225 69.4559283,26.5788225 Z" id="Oval" fill="#B7E6F8" opacity="0.444568452"></path>
                    <path d="M71.0046731,0.881708154 C73.2243521,0.775837148 74.758542,0.875480447 78.5450534,1.38615237 C81.3588231,1.76604244 81.9072143,1.86568575 84.3227474,2.46977326 C86.0658485,2.9057127 87.1952733,3.14236555 88.2724706,3.31051361 C88.7882197,3.38524608 89.1733992,3.57207729 89.3757816,3.82741324 C89.4867657,3.97065048 89.506351,4.0889769 89.506351,4.45018387 C89.4998226,4.69929212 89.4998226,5.31583505 89.4998226,5.83273467 C89.506351,7.55158161 89.4998226,7.65745262 89.4149525,7.85673922 C89.3561963,7.99374875 89.1668708,8.15566911 88.7882197,8.39232196 C87.3519567,9.29533938 86.8557931,10.3104555 85.5566278,15.0186014 C84.7993257,17.7712477 84.1464788,19.4714115 83.3891767,20.7044973 C81.4632787,23.8183505 77.8530358,25.9731368 73.3549215,26.6893231 C67.9232361,27.5549743 61.9366312,26.2596113 58.3198599,23.4384604 C57.6343709,22.9028777 56.5571736,21.813029 55.9565547,21.0470211 C54.4550069,19.1351154 53.3908668,17.0612892 52.3006127,13.9225253 C51.5694242,11.8175604 51.1516023,11.0577803 50.3681862,10.385188 C49.8720227,9.96170395 49.849173,9.67761071 48.1778852,9.6651553 C46.8395493,9.65269989 46.5425039,9.88697148 46.2095522,10.0302087 C45.7460308,10.2294954 45.4718352,10.5533361 45.0540132,11.3753933 C44.6753621,12.122718 44.492565,12.6271622 43.9507021,14.4456525 C43.5198233,15.8593419 43.2717416,16.4509739 42.664594,17.5221394 C40.1707193,21.9064446 37.585446,24.4411211 34.2167565,25.8236718 C32.1798746,26.6581845 30.0189518,26.988253 26.6437338,27.0007084 C25.4229104,27.0007084 24.4044694,26.9757975 23.9344196,26.9259758 C19.0902965,26.4028486 15.4017121,24.8334666 13.7238961,22.5914924 C13.2342608,21.9313555 12.2354053,19.8762125 11.3867045,17.7587922 C10.6489876,15.9278466 10.0875394,14.2463659 9.37593632,11.7864219 C9.05604139,10.6592071 8.79490269,10.2730893 7.20195653,8.62274709 C6.79066304,8.19303536 6.43159732,7.75709592 6.34019876,7.56403701 C6.04641772,6.97863263 5.96154763,6.24999099 6.0072469,4.74288605 C6.03336078,4.00801672 6.05947464,3.40392921 6.07253159,3.39147379 C6.07906006,3.37901838 6.71884989,3.26069197 7.4892091,3.12368242 C8.25956832,2.99290059 10.0483685,2.65660445 11.465046,2.37635767 C15.6693794,1.56052813 17.5561065,1.25537054 19.7888425,1.0249454 C21.0880076,0.894163568 24.9724461,0.875480447 26.4152375,0.993806867 C28.6218597,1.18063805 32.8131361,1.66639916 34.54318,1.94664593 C35.4767508,2.09611089 35.9663859,2.18952648 38.7866841,2.75002005 C43.0106028,3.59076039 45.2792448,3.78381929 48.2170554,3.82741324 C52.0231522,3.8834626 53.0579149,3.61567121 60.1347741,2.35144684 C65.7623133,1.34255842 68.1517327,1.01871769 71.0046731,0.881708154 Z M29.5180089,2.60948838 C28.0647089,2.54114356 27.9539192,2.54114356 26.2334205,2.61570154 C24.389098,2.69025953 21.8995885,2.9139335 19.9444763,3.17488647 C16.6142687,3.6222344 14.6982586,4.31810898 13.3948505,5.56074215 C12.7105613,6.20691138 12.345607,6.81580164 12.1435787,7.62351319 C11.9806527,8.28832191 11.9806527,10.7860146 12.1500958,11.9292371 C12.502016,14.3772245 13.5382253,17.9373685 14.3984747,19.6522022 C15.4998546,21.8578761 17.331143,23.4670859 19.7098628,24.3182897 C21.6780092,25.0265907 25.5751995,25.4490859 28.0907771,25.225412 C32.0792058,24.8836878 35.2530046,23.5230045 37.7099291,21.1185093 C38.8634452,19.9814999 39.5933536,18.9563276 40.5578757,17.1172305 C41.9525224,14.4455692 42.6759139,12.5505537 42.9496296,10.8729989 C43.0604193,10.1833375 43.0278341,9.04011497 42.8844593,8.46229057 C42.2262381,5.85276093 39.3326721,4.15656667 33.695432,3.08168897 C32.2747172,2.80830969 31.2189565,2.69025953 29.5180089,2.60948838 Z M69.9147416,2.60950259 C68.2682626,2.54113854 68.1706452,2.54113854 66.6738461,2.61571752 C64.9362574,2.69651142 63.6672321,2.85809924 62.0272609,3.20613453 C56.7754483,4.31860446 54.1658116,5.90962291 53.4759823,8.42044889 C53.2937634,9.08544489 53.306779,10.4402966 53.5020136,11.3725339 C53.6842327,12.2301923 54.2178741,13.7901361 54.6929451,14.8528868 C55.6235638,16.9348835 56.7819562,18.9609461 57.6344807,20.0112668 C60.1399924,23.0876502 63.7323104,24.8526863 68.287786,25.2380111 C69.3811,25.3312349 71.6002675,25.2815155 72.7131052,25.1385725 C73.9886383,24.9831996 75.6741643,24.6413792 76.4160561,24.3927825 C78.9736303,23.541339 80.9650239,21.7825178 82.0518301,19.3959902 C82.5724559,18.2710906 83.340379,15.9218523 83.704817,14.3681233 C84.3946462,11.4284681 84.5378183,8.64418586 84.0627472,7.27068946 C83.4445041,5.48700863 81.8370721,4.34967903 78.9280755,3.63496372 C77.0473148,3.17505994 73.3118248,2.75244567 69.9147416,2.60950259 Z" id="Combined-Shape" fill="#5E5566"></path>
                    <path d="M5.89562688,2.98798547 L8.18151448,6.88989781 C4.96983251,6.58763216 3.08377199,5.95817656 2.52333289,5.00153103 C1.82061219,3.80201683 1.02058652,1.75833969 0.910051902,1.49338798 C0.683581503,0.950537952 2.34543983,1.44873712 5.89562688,2.98798547 Z" id="Rectangle" fill="#6D7278" transform="translate(4.535598, 4.085493) rotate(22.000000) translate(-4.535598, -4.085493) "></path>
                </g>
            </g>
        </g>
    </g>
</svg>