<?xml version="1.0" encoding="UTF-8"?>
<svg width="1000px" height="1000px" viewBox="0 0 1000 1000" version="1.1" xmlns="http://www.w3.org/2000/svg" xmlns:xlink="http://www.w3.org/1999/xlink">
    <title>Artboard</title>
    <g id="Artboard" stroke="none" stroke-width="1" fill="none" fill-rule="evenodd">
        <g id="sqn-logo-copy" fill-rule="nonzero">
            <rect id="Rectangle" fill="#7FB7CD" x="0" y="0" width="1000" height="1000"></rect>
            <g id="Group-3" transform="translate(40.000000, 46.666667)">
                <g id="Group-2">
                    <rect id="Rectangle" fill="#FFFCFC" x="186.875" y="207.1875" width="591.171876" height="635.729167"></rect>
                    <path d="M808.965702,312.644167 L713.792422,312.644167 C687.509531,312.644167 666.205782,291.650938 666.205782,265.747187 L666.205782,218.850208 L856.552344,218.850208 L856.552344,265.747187 C856.552344,291.649167 835.248593,312.644167 808.965702,312.644167" id="Path" fill="#D3C390"></path>
                    <polygon id="Path" fill="#B5A576" points="0 906.666667 920 906.666667 920 844.138542 0 844.138542"></polygon>
                    <g id="Group" transform="translate(62.890624, 217.812500)" fill="#D3C390">
                        <path d="M190.903594,626.326042 L0.557031251,626.326042 L0.557031251,579.429062 C0.557031251,553.527082 21.8589844,532.532082 48.1436718,532.532082 L143.316953,532.532082 C169.599844,532.532082 190.903594,553.525313 190.903594,579.429062 L190.903594,626.326042 L190.903594,626.326042 Z" id="Path"></path>
                        <path d="M143.316953,94.8316667 L48.1436718,94.8316667 C21.8607812,94.8316667 0.557031251,73.8384376 0.557031251,47.9346876 L0.557031251,1.03770833 L190.901797,1.03770833 L190.901797,47.9346876 C190.901797,73.8366667 169.599844,94.8316667 143.316953,94.8316667" id="Path"></path>
                    </g>
                    <polygon id="Path" fill="#F9EBB0" points="111.034297 750.344584 206.207578 750.344584 206.207578 312.644167 111.034297 312.644167"></polygon>
                    <path d="M856.55414,844.138542 L666.207578,844.138542 L666.207578,797.241562 C666.207578,771.339584 687.509531,750.344584 713.794218,750.344584 L808.9675,750.344584 C835.250391,750.344584 856.55414,771.337813 856.55414,797.241562 L856.55414,844.138542 L856.55414,844.138542 Z" id="Path" fill="#D3C390"></path>
                    <path d="M808.965702,750.344584 L761.379062,750.344584 C787.661953,750.344584 808.965702,771.337813 808.965702,797.241562 L808.965702,844.138542 L856.552344,844.138542 L856.552344,797.241562 C856.552344,771.339584 835.248593,750.344584 808.965702,750.344584" id="Path" fill="#9E926C"></path>
                    <g id="Group" transform="translate(664.843751, 217.812500)" fill="#DCCFA6">
                        <path d="M48.9486718,532.532082 L96.5353124,532.532082 C70.2524218,532.532082 48.9486718,553.525313 48.9486718,579.429062 L48.9486718,626.326042 L1.36203125,626.326042 L1.36203125,579.429062 C1.36382812,553.527082 22.6657813,532.532082 48.9486718,532.532082" id="Path"></path>
                        <path d="M48.9486718,94.8316667 L96.5353124,94.8316667 C70.2524218,94.8316667 48.9486718,73.8384376 48.9486718,47.9346876 L48.9486718,1.03770833 L1.36203125,1.03770833 L1.36203125,47.9346876 C1.36382812,73.8366667 22.6657813,94.8316667 48.9486718,94.8316667" id="Path"></path>
                    </g>
                    <g id="Group" transform="translate(158.125000, 749.062500)" fill="#9E926C">
                        <path d="M48.0825782,1.28208333 L0.4959375,1.28208333 C26.7788282,1.28208333 48.0825782,22.2753124 48.0825782,48.1790624 L48.0825782,95.0760416 L95.6692187,95.0760416 L95.6692187,48.1790624 C95.6674218,22.2770833 74.3654687,1.28208333 48.0825782,1.28208333" id="Path"></path>
                    </g>
                    <g id="Group" transform="translate(62.890624, 217.812500)" fill="#DCCFA6">
                        <path d="M48.1436718,532.532082 L95.7303124,532.532082 C69.4474218,532.532082 48.1436718,553.525313 48.1436718,579.429062 L48.1436718,626.326042 L0.557031251,626.326042 L0.557031251,579.429062 C0.557031251,553.527082 21.8607812,532.532082 48.1436718,532.532082" id="Path"></path>
                        <path d="M48.1436718,94.8316667 L95.7303124,94.8316667 C69.4474218,94.8316667 48.1436718,73.8384376 48.1436718,47.9346876 L48.1436718,1.03770833 L0.557031251,1.03770833 L0.557031251,47.9346876 C0.557031251,73.8366667 21.8607812,94.8316667 48.1436718,94.8316667" id="Path"></path>
                    </g>
                    <path d="M206.207578,312.644167 L158.620938,312.644167 C184.903828,312.644167 206.207578,291.650938 206.207578,265.747187 L206.207578,218.850208 L253.794218,218.850208 L253.794218,265.747187 C253.792422,291.649167 232.490469,312.644167 206.207578,312.644167" id="Path" fill="#9E926C"></path>
                    <polygon id="Path" fill="#F9EBB0" points="713.792422 750.344584 808.965702 750.344584 808.965702 312.644167 713.792422 312.644167"></polygon>
                    <polygon id="Path" fill="#D3C390" points="460 -1.73688224e-13 920 156.322083 0 156.322083"></polygon>
                    <polygon id="Path" fill="#DCCFA6" points="460 -1.73688224e-13 491.723829 10.7702083 63.4476562 156.322083 -2.52637418e-13 156.322083"></polygon>
                    <polygon id="Path" fill="#B5A576" points="31.7238282 218.850208 888.276171 218.850208 888.276171 156.322083 31.7238282 156.322083"></polygon>
                    <polygon id="Path" fill="#BBB084" points="777.241876 750.344584 808.965702 750.344584 808.965702 312.644167 777.241876 312.644167"></polygon>
                    <polygon id="Path" fill="#FCF3D0" points="111.034297 750.344584 142.758125 750.344584 142.758125 312.644167 111.034297 312.644167"></polygon>
                    <polygon id="Path" fill="#BBB084" points="174.481953 750.344584 206.207578 750.344584 206.207578 312.644167 174.481953 312.644167"></polygon>
                    <g id="Group" transform="translate(839.140624, 155.833333)" fill="#887C59">
                        <polygon id="Path" points="1.54890625 63.0168749 49.1355469 63.0168749 49.1355469 0.48875 1.54890625 0.48875"></polygon>
                        <polygon id="Path" points="33.2727344 750.833333 80.8593749 750.833333 80.8593749 688.305209 33.2727344 688.305209"></polygon>
                    </g>
                    <g id="Group" transform="translate(30.546876, 155.833333)" fill="#C4B791">
                        <polygon id="Path" points="1.17695312 63.0168749 48.7635938 63.0168749 48.7635938 0.48875 1.17695312 0.48875"></polygon>
                        <polygon id="Path" points="32.9007813 750.833333 80.4874218 750.833333 80.4874218 688.305209 32.9007813 688.305209"></polygon>
                    </g>
                    <polygon id="Path" fill="#9E926C" points="460 -1.73688224e-13 428.276171 10.7702083 856.552344 156.322083 920 156.322083"></polygon>
                </g>
                <path d="M263.773991,347.932342 C266.557658,355.203524 269.823064,360.999307 273.570309,365.319864 C280.10122,372.854496 288.211207,376.621753 297.900509,376.621753 C303.146651,376.621753 307.683424,374.988398 311.510967,371.721633 C315.338509,368.454871 317.252253,363.897278 317.252253,358.04872 C317.252253,352.779747 315.325127,348.195811 311.470818,344.296771 C308.954811,341.820353 303.655218,338.105784 295.571876,333.152949 L281.51978,324.538222 C277.290749,321.903738 273.918278,319.242947 271.402271,316.555771 C266.744982,311.444867 264.416373,305.807151 264.416373,299.642453 C264.416373,291.475547 267.173233,284.678673 272.687036,279.251633 C278.200838,273.824591 285.507853,271.111111 294.608304,271.111111 C298.355549,271.111111 302.865556,272.019996 308.138464,273.837791 C313.411373,275.655587 316.422507,276.564471 317.171956,276.564471 C319.206173,276.564471 320.611369,276.090269 321.387582,275.141856 C322.163798,274.19344 322.766024,272.849871 323.194282,271.111111 L326.566784,271.111111 L330.18018,305.570018 L326.245593,305.570018 C323.568991,295.190142 319.273107,287.945413 313.357813,283.835616 C307.442522,279.725818 301.594231,277.670949 295.812769,277.670949 C291.316076,277.670949 287.394911,278.975 284.049158,281.583142 C280.703404,284.191282 279.030553,287.813647 279.030553,292.450342 C279.030553,296.612831 280.315302,300.169333 282.884842,303.119958 C285.45438,306.123271 289.44246,309.258264 294.849198,312.525027 L309.30278,321.297822 C318.3497,326.777553 324.719918,331.809347 328.413631,336.393351 C332.053811,341.030047 333.873873,346.509696 333.873873,352.832462 C333.873873,361.315509 330.621849,368.402169 324.117704,374.09266 C317.61356,379.783151 309.302831,382.628353 299.185273,382.628353 C294.099727,382.628353 288.786749,381.679951 283.24618,379.783122 C277.705613,377.886291 274.533887,376.937891 273.730904,376.937891 C271.803751,376.937891 270.505618,377.517469 269.836467,378.676642 C269.167316,379.835818 268.725682,381.074007 268.511556,382.391249 L264.89816,382.391249 L260,347.932342 L263.773991,347.932342 Z M362.702702,377.909789 C369.392593,377.43166 373.72758,376.435571 375.707787,374.921493 C377.687996,373.407418 378.678084,369.489471 378.678084,363.16754 L378.678084,290.571924 C378.678084,284.568744 377.687996,280.703924 375.707787,278.977344 C373.72758,277.250767 369.392593,276.228116 362.702702,275.909364 L362.702702,272.881227 L411.351351,272.881227 L411.351351,275.909364 C404.66146,276.228116 400.326476,277.250767 398.346267,278.977344 C396.36606,280.703924 395.375971,284.568744 395.375971,290.571924 L395.375971,363.16754 C395.375971,369.489471 396.36606,373.407418 398.346267,374.921493 C400.326476,376.435571 404.66146,377.43166 411.351351,377.909789 L411.351351,380.858238 L362.702702,380.858238 L362.702702,377.909789 Z M429.369369,377.773693 C436.220887,377.083958 440.61766,375.558602 442.559822,373.19758 C444.501984,370.83656 445.473051,365.358542 445.473051,356.763367 L445.473051,284.898496 L443.207207,282.272207 C440.779504,279.460204 438.715987,277.722624 437.016596,277.059416 C435.317204,276.396209 432.768153,276.011553 429.369369,275.90544 L429.369369,272.881227 L457.773353,272.881227 L521.621622,351.351616 L521.621622,296.836182 C521.621622,287.869609 520.272918,282.033464 517.575471,279.327576 C515.795156,277.576707 511.85694,276.436007 505.760709,275.90544 L505.760709,272.881227 L544.684684,272.881227 L544.684684,275.90544 C538.372658,276.54212 534.164702,278.054211 532.060693,280.44176 C529.956682,282.829309 528.904693,288.294062 528.904693,296.836182 L528.904693,382.628353 L526.072389,382.628353 L452.756124,293.254878 L452.756124,356.763367 C452.756124,365.676882 454.077853,371.486498 456.721353,374.192387 C458.44772,375.943258 462.305011,377.137013 468.293347,377.773693 L468.293347,380.718322 L429.369369,380.718322 L429.369369,377.773693 Z M562.702702,377.909789 C568.810842,377.272282 572.770262,376.196507 574.58108,374.682431 C576.3919,373.168353 577.297298,369.330096 577.297298,363.16754 L577.297298,290.571924 C577.297298,284.781247 576.405413,280.996113 574.621622,279.216409 C572.837829,277.436704 568.864896,276.334367 562.702702,275.909364 L562.702702,272.881227 L650.91892,272.881227 L651.486487,296.309449 L647.270271,296.309449 C645.864858,289.084382 643.756771,284.409409 640.945947,282.284391 C638.13512,280.159371 631.864913,279.096878 622.135136,279.096878 L599.594596,279.096878 C597.162149,279.096878 595.662164,279.482031 595.094596,280.252351 C594.527024,281.022671 594.243242,282.470318 594.243242,284.595338 L594.243242,321.012676 L619.783784,321.012676 C626.8649,321.012676 631.378369,319.976744 633.324324,317.904851 C635.27028,315.832958 636.837831,311.636107 638.027027,305.314173 L641.91892,305.314173 L641.91892,343.086204 L638.027027,343.086204 C636.783778,336.764273 635.1892,332.580702 633.243242,330.535371 C631.297287,328.49004 626.810847,327.467391 619.783784,327.467391 L594.243242,327.467391 L594.243242,367.86912 C594.243242,371.109776 595.283773,373.022264 597.364864,373.606644 C599.445956,374.191024 605.675624,374.483211 616.054053,374.483211 C627.297353,374.483211 635.594569,373.274624 640.945947,370.857416 C646.297324,368.440204 651.108087,362.583209 655.378378,353.286249 L660,353.286249 L652.45946,380.858238 L562.702702,380.858238 L562.702702,377.909789 Z M292.432433,526.048242 C292.432433,543.524658 295.911362,556.442404 302.869322,564.801867 C309.827284,573.161329 318.373944,577.340996 328.509558,577.340996 C338.426024,577.340996 346.9042,573.26954 353.944344,565.126504 C360.984487,556.983467 364.504504,543.957511 364.504504,526.048242 C364.504504,507.922549 360.943396,494.82896 353.821073,486.767082 C346.698749,478.705207 338.261662,474.674329 328.509558,474.674329 C318.428731,474.674329 309.895769,478.853998 302.910413,487.21346 C295.925058,495.572922 292.432433,508.51772 292.432433,526.048242 Z M272.612613,526.606809 C272.612613,508.902198 278.310358,494.706336 289.706022,484.018796 C300.161267,474.248873 313.022682,469.363984 328.29066,469.363984 C343.33736,469.363984 356.1158,474.194896 366.626362,483.856864 C378.187982,494.490427 383.968704,508.740267 383.968704,526.606809 C383.968704,540.748909 380.290064,552.70474 372.932669,562.474662 C364.966769,573.000269 353.681913,579.6394 339.077762,582.392251 C345.937287,592.054218 354.234976,598.909256 363.971076,602.957564 C369.447633,605.22462 376.832576,606.897896 386.126127,607.977444 L386.126127,610.97318 L379.155998,610.97318 C369.973084,610.97318 361.82752,610.244496 354.719062,608.787102 C347.610602,607.329711 341.152233,605.116669 335.343764,602.147907 C329.535296,599.233124 324.155627,595.184873 319.2046,590.003036 C314.253571,584.821198 311.501502,582.095378 310.948318,581.825489 L308.790896,580.8539 C299.386709,576.58968 292.112402,571.73178 286.967758,566.280056 C277.397613,556.186267 272.612613,542.961984 272.612613,526.606809 Z M454.034318,471.1341 L454.034318,474.195989 C447.52318,474.625731 443.30204,475.686638 441.370771,477.378742 C439.4395,479.070849 438.47388,482.951889 438.47388,489.02198 L438.47388,541.799289 C438.47388,550.447827 439.687802,557.189287 442.115684,562.023873 C446.640373,570.833567 455.2206,575.238344 467.85662,575.238344 C481.706582,575.238344 491.004124,570.726131 495.749531,561.701571 C498.398129,556.652113 499.722409,548.863173 499.722409,538.334518 L499.722409,495.387489 C499.722409,486.416644 498.618842,480.789807 496.411678,478.506807 C494.204511,476.223809 490.01096,474.786882 483.830898,474.195989 L483.830898,471.1341 L523.063062,471.1341 L523.063062,474.195989 C516.496747,474.894318 512.206633,476.438678 510.192596,478.829111 C508.178558,481.219547 507.171553,486.738949 507.171553,495.387489 L507.171553,538.334518 C507.171553,549.722656 505.378258,558.612789 501.791616,565.005189 C495.17012,576.769349 482.589467,582.65134 464.04928,582.65134 C445.729809,582.65134 433.259511,576.849924 426.638016,565.246916 C423.051373,559.015671 421.258078,550.796998 421.258078,540.590647 L421.258078,489.02198 C421.258078,483.005607 420.306251,479.151424 418.402571,477.459318 C416.498891,475.767213 412.346724,474.679449 405.945947,474.195989 L405.945947,471.1341 L454.034318,471.1341 Z M616.756758,538.398467 L596.810696,492.37548 L577.117118,538.398467 L616.756758,538.398467 Z M542.882882,580.881227 L542.882882,577.889102 C547.242033,577.403891 550.511349,575.786544 552.690924,573.037011 C554.8705,570.287478 558.608829,562.820724 563.906027,550.63652 L599.248082,469.363984 L602.558813,469.363984 L644.770636,563.25196 C647.584771,569.505798 649.833289,573.373956 651.516251,574.856544 C653.199216,576.339136 656.027102,577.349978 660,577.889102 L660,580.881227 L616.877727,580.881227 L616.877727,577.889102 C621.843847,577.457804 625.044189,576.932167 626.478847,576.312173 C627.913504,575.69218 628.630822,574.169178 628.630822,571.74312 C628.630822,570.934433 628.354931,569.505778 627.803138,567.457107 C627.251347,565.408433 626.478851,563.251971 625.485627,560.987649 L618.450322,545.056616 L574.086524,545.056616 C569.672193,555.893009 567.037431,562.510656 566.182153,564.909758 C565.326878,567.30886 564.899244,569.209242 564.899244,570.610964 C564.899244,573.414411 566.057989,575.355227 568.375513,576.433476 C569.810171,577.080424 572.513907,577.565629 576.486804,577.889102 L576.486804,580.881227 L542.882882,580.881227 Z M270.810811,779.511484 C277.769382,778.810622 282.234856,777.260664 284.207364,774.861562 C286.179873,772.462462 287.166113,766.896089 287.166113,758.16228 L287.166113,685.1383 L284.864864,682.469651 C282.399229,679.612293 280.303469,677.846689 278.577524,677.172782 C276.85158,676.498878 274.2627,676.10802 270.810811,676.000196 L270.810811,672.927202 L299.658607,672.927202 L364.504504,752.663244 L364.504504,697.268529 C364.504504,688.157333 363.134727,682.22706 360.395131,679.477527 C358.587,677.698418 354.587249,676.539318 348.395764,676.000196 L348.395764,672.927202 L387.927929,672.927202 L387.927929,676.000196 C381.517276,676.647142 377.243571,678.183624 375.106687,680.609682 C372.969802,683.03574 371.901376,688.588633 371.901376,697.268529 L371.901376,784.444444 L369.024813,784.444444 L294.562984,693.62946 L294.562984,758.16228 C294.562984,767.219564 295.905367,773.122884 298.590169,775.872416 C300.343511,777.651524 304.261073,778.864536 310.342976,779.511484 L310.342976,782.503607 L270.810811,782.503607 L270.810811,779.511484 Z M427.567567,727.841347 C427.567567,745.317762 431.046496,758.235507 438.004458,766.594969 C444.96242,774.954431 453.50908,779.1341 463.644693,779.1341 C473.56116,779.1341 482.039336,775.062642 489.079478,766.919607 C496.119622,758.776571 499.63964,745.750613 499.63964,727.841347 C499.63964,709.715651 496.078531,696.622062 488.956209,688.560187 C481.833884,680.498311 473.396798,676.467433 463.644693,676.467433 C453.563867,676.467433 445.030904,680.647102 438.045549,689.006564 C431.060193,697.366024 427.567567,710.310824 427.567567,727.841347 Z M409.549549,726.956422 C409.549549,709.150789 415.1733,694.873927 426.420967,684.125404 C436.740429,674.299733 449.434813,669.386973 464.504504,669.386973 C479.628796,669.386973 492.35048,674.326876 502.669942,684.206831 C513.863009,694.901069 519.45946,709.150789 519.45946,726.956422 C519.45946,745.033482 513.671911,759.418916 502.096642,770.113153 C491.72258,779.667396 479.191993,784.444444 464.504504,784.444444 C448.779611,784.444444 435.730327,779.151691 425.356264,768.566024 C414.818402,757.763218 409.549549,743.893489 409.549549,726.956422 Z M542.882882,779.511484 C549.841456,778.810622 554.306929,777.260664 556.279438,774.861562 C558.251947,772.462462 559.238184,766.896089 559.238184,758.16228 L559.238184,685.1383 L556.936938,682.469651 C554.4713,679.612293 552.375542,677.846689 550.649598,677.172782 C548.923651,676.498878 546.334773,676.10802 542.882882,676.000196 L542.882882,672.927202 L571.730678,672.927202 L636.576576,752.663244 L636.576576,697.268529 C636.576576,688.157333 635.2068,682.22706 632.467204,679.477527 C630.659071,677.698418 626.659322,676.539318 620.467836,676.000196 L620.467836,672.927202 L660,672.927202 L660,676.000196 C653.589347,676.647142 649.315642,678.183624 647.178758,680.609682 C645.041873,683.03574 643.973447,688.588633 643.973447,697.268529 L643.973447,784.444444 L641.096887,784.444444 L566.635056,693.62946 L566.635056,758.16228 C566.635056,767.219564 567.977438,773.122884 570.662242,775.872416 C572.415582,777.651524 576.333144,778.864536 582.415047,779.511484 L582.415047,782.503607 L542.882882,782.503607 L542.882882,779.511484 Z" id="SINEQUANON" stroke="#F5F4F4" stroke-width="2" fill="#D1C6A7"></path>
                <path d="M180.834569,877.480018 L175.844608,865.989658 L170.91781,877.480018 L180.834569,877.480018 Z M162.222222,888.196207 L162.222222,887.442407 C163.331108,887.320169 164.16276,886.912713 164.717203,886.220029 C165.271646,885.527344 166.222607,883.646258 167.570114,880.576711 L176.560467,860.101864 L177.402655,860.101864 L188.140547,883.754898 C188.85641,885.330416 189.42839,886.304913 189.856505,886.67842 C190.284619,887.051927 191.00398,887.306587 192.01461,887.442407 L192.01461,888.196207 L181.045116,888.196207 L181.045116,887.442407 C182.308404,887.333751 183.122511,887.201327 183.48746,887.045133 C183.85241,886.88894 184.034882,886.505253 184.034882,885.89406 C184.034882,885.690329 183.964701,885.330411 183.824336,884.814293 C183.68397,884.298173 183.487462,883.7549 183.234804,883.184453 L181.445155,879.170976 L170.159841,879.170976 C169.036918,881.900969 168.366684,883.568142 168.149118,884.172544 C167.931552,884.776944 167.82277,885.255704 167.82277,885.608838 C167.82277,886.315107 168.117533,886.804053 168.707067,887.075693 C169.072017,887.238678 169.759797,887.360916 170.770427,887.442407 L170.770427,888.196207 L162.222222,888.196207 Z M216.902659,860.590816 L216.902659,861.364989 C216.046431,861.392153 215.435851,861.466853 215.070901,861.589093 C214.425221,861.819987 214.102385,862.241024 214.102385,862.852218 C214.102385,863.123858 214.140985,863.388704 214.218186,863.646764 C214.295387,863.904822 214.411187,864.237578 214.565588,864.64504 L220.797777,880.332236 L225.3877,868.556653 L223.345396,863.524527 C222.966409,862.600947 222.397938,861.982971 221.639965,861.670584 C221.190796,861.480436 220.510034,861.378571 219.59766,861.364989 L219.59766,860.590816 L231.135631,860.590816 L231.135631,861.364989 C230.054818,861.378571 229.310893,861.453271 228.903833,861.589093 C228.258153,861.819987 227.935318,862.295353 227.935318,863.015202 C227.935318,863.259678 227.963391,863.473593 228.019536,863.656951 C228.075682,863.840309 228.216047,864.217204 228.440631,864.787651 L234.672818,880.434102 L240.06282,866.274878 C240.371624,865.473538 240.582169,864.760489 240.69446,864.135716 C240.764642,863.782582 240.799733,863.497362 240.799733,863.280051 C240.799733,862.505873 240.420753,861.969389 239.66278,861.670584 C239.241684,861.494018 238.610051,861.392153 237.767858,861.364989 L237.767858,860.590816 L246.316062,860.590816 L246.316062,861.364989 C245.544053,861.473647 244.954529,861.64342 244.547469,861.874313 C243.817569,862.268193 243.270153,862.947287 242.905202,863.911613 L238.31528,876.318758 L236.525631,881.106409 L233.935904,888.68516 L233.283209,888.68516 L231.535669,883.856762 L226.398324,871.021784 L219.766097,888.68516 L219.113402,888.68516 L216.018362,880.006269 L212.312736,870.247611 C210.782755,866.227322 209.719503,863.75882 209.122951,862.842031 C208.526398,861.925242 207.596492,861.4329 206.333204,861.364989 L206.333204,860.590816 L216.902659,860.590816 Z M250.201356,887.442407 C251.787484,887.279422 252.815644,887.004389 253.285867,886.617302 C253.756091,886.230213 253.9912,885.248924 253.9912,883.673404 L253.9912,865.113618 C253.9912,863.633173 253.7596,862.665467 253.296396,862.210469 C252.833189,861.755469 251.80152,861.473647 250.201356,861.364989 L250.201356,860.590816 L273.10886,860.590816 L273.256242,866.580473 L272.161398,866.580473 C271.796449,864.733313 271.249031,863.538111 270.519133,862.994829 C269.789233,862.451547 268.16102,862.179909 265.634444,862.179909 L259.78124,862.179909 C259.149596,862.179909 258.760089,862.278378 258.612704,862.475318 C258.46532,862.672258 258.391631,863.042362 258.391631,863.585644 L258.391631,872.896098 L265.023858,872.896098 C266.862644,872.896098 268.034676,872.631251 268.539991,872.101551 C269.045307,871.571851 269.45236,870.498884 269.761164,868.88262 L270.771789,868.88262 L270.771789,878.539413 L269.761164,878.539413 C269.438324,876.923149 269.024251,875.853578 268.518938,875.330669 C268.013622,874.80776 266.848607,874.546309 265.023858,874.546309 L258.391631,874.546309 L258.391631,884.875411 C258.391631,885.703918 258.661829,886.192864 259.202236,886.342267 C259.742642,886.491669 261.360329,886.566369 264.055342,886.566369 C266.97494,886.566369 269.129516,886.257382 270.519133,885.639398 C271.908749,885.021416 273.157982,883.524016 274.266867,881.147156 L275.466984,881.147156 L273.508898,888.196207 L250.201356,888.196207 L250.201356,887.442407 Z M291.753491,886.688607 C293.957227,886.688607 295.803002,886.27436 297.290873,885.445856 C298.778747,884.617349 299.522671,883.028273 299.522671,880.678578 C299.522671,878.342464 298.65242,876.746596 296.911889,875.890927 C295.17136,875.035256 292.953622,874.607429 290.258607,874.607429 L289.005853,874.607429 C288.830398,874.607429 288.560198,874.600638 288.195247,874.587056 L288.195247,884.977276 C288.195247,885.697124 288.405793,886.162304 288.826889,886.372827 C289.247984,886.583347 290.223509,886.688607 291.753491,886.688607 Z M279.668098,887.442407 C281.408627,887.347333 282.535042,887.085882 283.047376,886.658047 C283.559709,886.230213 283.815871,885.235342 283.815871,883.673404 L283.815871,865.113618 C283.815871,863.578847 283.559709,862.590767 283.047376,862.149349 C282.535042,861.707933 281.408627,861.446482 279.668098,861.364989 L279.668098,860.590816 L291.753491,860.590816 C295.206478,860.590816 297.947069,861.1273 299.975347,862.200282 C302.003627,863.273264 303.017751,865.120396 303.017751,867.741733 C303.017751,869.711131 302.308916,871.205136 300.891227,872.223789 C300.091144,872.807818 298.891038,873.289973 297.290873,873.670271 C299.270024,874.13206 300.961402,874.902831 302.365056,875.982604 C303.768709,877.062378 304.470524,878.57336 304.470524,880.515593 C304.470524,883.775287 302.912493,886.016293 299.796382,887.238678 C298.154109,887.877033 296.132878,888.196207 293.732631,888.196207 L279.668098,888.196207 L279.668098,887.442407 Z M292.300913,872.936844 C293.746676,872.90968 294.94678,872.68558 295.901264,872.264536 C297.726013,871.449611 298.638376,869.989562 298.638376,867.884344 C298.638376,865.398829 297.585651,863.721469 295.480171,862.852218 C294.315138,862.376847 292.546562,862.139162 290.174389,862.139162 C289.276051,862.139162 288.721616,862.213862 288.511069,862.363267 C288.30052,862.512669 288.195247,862.920124 288.195247,863.585644 L288.195247,872.997962 L292.300913,872.936844 Z M329.221016,868.169567 C329.221016,865.616151 328.084073,863.86408 325.810156,862.913336 C324.588978,862.397218 323.044982,862.139162 321.178124,862.139162 C320.293822,862.139162 319.749916,862.224049 319.546384,862.393824 C319.342856,862.563602 319.241091,862.940498 319.241091,863.524527 L319.241091,874.403698 C320.0131,874.471609 320.518409,874.512353 320.757029,874.525936 C320.995651,874.539518 321.227249,874.546309 321.451836,874.546309 C323.430984,874.546309 324.989018,874.274673 326.125976,873.731391 C328.189347,872.7399 329.221016,870.885978 329.221016,868.169567 Z M311.261364,887.442407 C312.903638,887.293004 313.928289,886.977227 314.335349,886.495064 C314.742409,886.0129 314.945936,884.909376 314.945936,883.184453 L314.945936,865.113618 C314.945936,863.660338 314.717844,862.702818 314.261658,862.241029 C313.805471,861.779238 312.805382,861.487229 311.261364,861.364989 L311.261364,860.590816 L322.630898,860.590816 C326.280396,860.590816 329.073622,861.2767 331.010664,862.648487 C332.947707,864.020276 333.916211,865.826662 333.916211,868.0677 C333.916211,870.906351 332.842433,872.964002 330.694844,874.240716 C328.547256,875.517429 325.8593,876.155776 322.630898,876.155776 C322.167691,876.155776 321.574658,876.145589 320.851776,876.125216 C320.128893,876.104842 319.592004,876.094656 319.241091,876.094656 L319.241091,883.673404 C319.241091,885.248924 319.490236,886.2404 319.988533,886.64786 C320.486831,887.055322 321.599209,887.320169 323.325702,887.442407 L323.325702,888.196207 L311.261364,888.196207 L311.261364,887.442407 Z M352.708224,877.480018 L347.718264,865.989658 L342.791467,877.480018 L352.708224,877.480018 Z M334.095878,888.196207 L334.095878,887.442407 C335.204764,887.320169 336.036416,886.912713 336.59086,886.220029 C337.145302,885.527344 338.096262,883.646258 339.443771,880.576711 L348.434122,860.101864 L349.276311,860.101864 L360.014204,883.754898 C360.730067,885.330416 361.302047,886.304913 361.73016,886.67842 C362.158276,887.051927 362.877636,887.306587 363.888267,887.442407 L363.888267,888.196207 L352.918773,888.196207 L352.918773,887.442407 C354.18206,887.333751 354.996167,887.201327 355.361116,887.045133 C355.726067,886.88894 355.908538,886.505253 355.908538,885.89406 C355.908538,885.690329 355.838358,885.330411 355.697991,884.814293 C355.557627,884.298173 355.361118,883.7549 355.10846,883.184453 L353.318811,879.170976 L342.033498,879.170976 C340.910576,881.900969 340.24034,883.568142 340.022773,884.172544 C339.805209,884.776944 339.696427,885.255704 339.696427,885.608838 C339.696427,886.315107 339.991189,886.804053 340.580724,887.075693 C340.945673,887.238678 341.633453,887.360916 342.644082,887.442407 L342.644082,888.196207 L334.095878,888.196207 Z M383.438249,860.101864 C384.996304,860.101864 386.596444,860.325964 388.23872,860.774173 C389.880993,861.222382 390.800371,861.446482 390.996884,861.446482 C391.403942,861.446482 391.789942,861.337827 392.154891,861.120513 C392.519842,860.903202 392.772496,860.563656 392.91286,860.101864 L393.818211,860.101864 L394.218251,869.473438 L393.22868,869.473438 C392.653182,867.612696 391.90224,866.1119 390.975829,864.971007 C389.207227,862.825042 386.828069,861.752076 383.838289,861.752076 C380.820433,861.752076 378.353551,862.906533 376.437564,865.215484 C374.521578,867.524433 373.5636,870.702587 373.5636,874.75004 C373.5636,878.471522 374.570704,881.442553 376.584947,883.66322 C378.599189,885.883884 381.150291,886.994202 384.238327,886.994202 C386.470136,886.994202 388.526458,886.478091 390.407351,885.445856 C391.488164,884.861827 392.674233,883.979007 393.965596,882.797367 L394.765673,883.57154 C393.811189,884.739598 392.62512,885.765027 391.207431,886.64786 C388.793147,888.141887 386.175373,888.888889 383.354031,888.888889 C378.721976,888.888889 375.04446,887.456004 372.321373,884.590189 C369.808833,881.941689 368.552582,878.634507 368.552582,874.668547 C368.552582,870.607513 369.879016,867.198467 372.53192,864.441311 C375.325189,861.548331 378.960596,860.101864 383.438249,860.101864 Z M399.893193,887.442407 C401.647758,887.306587 402.735573,887.004391 403.156669,886.535809 C403.577764,886.067229 403.788311,884.950122 403.788311,883.184453 L403.788311,865.113618 C403.788311,863.606011 403.553202,862.631513 403.082978,862.190096 C402.612753,861.748678 401.549502,861.473647 399.893193,861.364989 L399.893193,860.590816 L412.189131,860.590816 L412.189131,861.364989 C410.504749,861.446482 409.416933,861.71812 408.925656,862.179909 C408.434376,862.6417 408.18874,863.619593 408.18874,865.113618 L408.18874,873.670271 C410.841644,871.48356 413.010258,869.622847 414.69464,868.088073 C417.712496,865.303753 419.2214,863.517738 419.2214,862.72998 C419.2214,862.173116 418.965236,861.806404 418.452902,861.629838 C417.940569,861.453271 417.214189,861.364989 416.273742,861.364989 L416.273742,860.590816 L427.559058,860.590816 L427.559058,861.263124 C426.183478,861.398944 425.099171,861.663791 424.306107,862.057671 C423.513042,862.451551 422.4147,863.313998 421.011049,864.64504 L412.820773,872.407147 L422.86386,882.899231 C424.73072,884.841467 426.001007,886.053647 426.67476,886.535809 C427.348513,887.017973 428.338073,887.333751 429.643471,887.483153 L429.643471,888.196207 L416.463236,888.196207 L416.463236,887.442407 C417.65634,887.40166 418.463429,887.309984 418.884524,887.167371 C419.30562,887.02476 419.516164,886.742938 419.516164,886.321893 C419.516164,886.090998 419.379311,885.737871 419.105598,885.262498 C418.831887,884.787127 418.400269,884.23706 417.810736,883.612287 L409.641516,874.933396 L408.18874,876.135402 L408.18874,883.673404 C408.18874,885.22176 408.430867,886.203049 408.915127,886.617302 C409.399389,887.031553 410.455622,887.306587 412.083858,887.442407 L412.083858,888.196207 L399.893193,888.196207 L399.893193,887.442407 Z M459.6057,886.688607 C461.809436,886.688607 463.655211,886.27436 465.143084,885.445856 C466.630958,884.617349 467.374882,883.028273 467.374882,880.678578 C467.374882,878.342464 466.504629,876.746596 464.7641,875.890927 C463.023571,875.035256 460.805831,874.607429 458.110818,874.607429 L456.858064,874.607429 C456.682607,874.607429 456.412407,874.600638 456.047458,874.587056 L456.047458,884.977276 C456.047458,885.697124 456.258002,886.162304 456.679098,886.372827 C457.100196,886.583347 458.075718,886.688607 459.6057,886.688607 Z M447.520309,887.442407 C449.260838,887.347333 450.387253,887.085882 450.899587,886.658047 C451.41192,886.230213 451.668082,885.235342 451.668082,883.673404 L451.668082,865.113618 C451.668082,863.578847 451.41192,862.590767 450.899587,862.149349 C450.387253,861.707933 449.260838,861.446482 447.520309,861.364989 L447.520309,860.590816 L459.6057,860.590816 C463.058687,860.590816 465.79928,861.1273 467.827558,862.200282 C469.855836,863.273264 470.86996,865.120396 470.86996,867.741733 C470.86996,869.711131 470.161127,871.205136 468.743438,872.223789 C467.943356,872.807818 466.743249,873.289973 465.143084,873.670271 C467.122236,874.13206 468.813611,874.902831 470.217264,875.982604 C471.620918,877.062378 472.322733,878.57336 472.322733,880.515593 C472.322733,883.775287 470.764702,886.016293 467.648593,887.238678 C466.006318,887.877033 463.985089,888.196207 461.584842,888.196207 L447.520309,888.196207 L447.520309,887.442407 Z M460.153122,872.936844 C461.598884,872.90968 462.798991,872.68558 463.753476,872.264536 C465.578224,871.449611 466.490584,869.989562 466.490584,867.884344 C466.490584,865.398829 465.43786,863.721469 463.33238,862.852218 C462.167349,862.376847 460.398773,862.139162 458.026598,862.139162 C457.12826,862.139162 456.573827,862.213862 456.363278,862.363267 C456.152731,862.512669 456.047458,862.920124 456.047458,863.585644 L456.047458,872.997962 L460.153122,872.936844 Z M484.587793,874.403698 C484.587793,878.790702 485.4791,882.033369 487.26174,884.131798 C489.04438,886.230224 491.234044,887.279422 493.830802,887.279422 C496.371416,887.279422 498.543536,886.257389 500.347231,884.213289 C502.150924,882.169191 503.052758,878.89936 503.052758,874.403698 C503.052758,869.853709 502.140398,866.566902 500.315649,864.543176 C498.4909,862.519449 496.329307,861.5076 493.830802,861.5076 C491.248082,861.5076 489.061924,862.556798 487.272267,864.655227 C485.482609,866.753653 484.587793,870.003113 484.587793,874.403698 Z M479.703104,874.403698 C479.703104,869.948784 481.148847,866.376758 484.040371,863.687509 C486.693276,861.229158 489.95672,860 493.830802,860 C497.718922,860 500.989384,861.235949 503.642289,863.707882 C506.519778,866.383549 507.958502,869.948784 507.958502,874.403698 C507.958502,878.926522 506.470651,882.525713 503.494907,885.20138 C500.827967,887.59182 497.606631,888.787024 493.830802,888.787024 C489.788282,888.787024 486.433602,887.462793 483.76666,884.814293 C481.057611,882.111462 479.703104,878.6413 479.703104,874.403698 Z M513.128129,887.442407 C514.882696,887.320169 516.019638,887.065509 516.538989,886.67842 C517.058342,886.291331 517.318013,885.289671 517.318013,883.673404 L517.318013,865.113618 C517.318013,863.578847 517.058342,862.590767 516.538989,862.149349 C516.019638,861.707933 514.882696,861.446482 513.128129,861.364989 L513.128129,860.590816 L525.887273,860.590816 L525.887273,861.364989 C524.132707,861.446482 522.995764,861.707933 522.476413,862.149349 C521.95706,862.590767 521.697389,863.578847 521.697389,865.113618 L521.697389,883.673404 C521.697389,885.289671 521.95706,886.291331 522.476413,886.67842 C522.995764,887.065509 524.132707,887.320169 525.887273,887.442407 L525.887273,888.196207 L513.128129,888.196207 L513.128129,887.442407 Z M530.151549,887.442407 C531.737678,887.279422 532.765838,887.004389 533.236062,886.617302 C533.706284,886.230213 533.941393,885.248924 533.941393,883.673404 L533.941393,865.113618 C533.941393,863.633173 533.709796,862.665467 533.246589,862.210469 C532.783384,861.755469 531.751713,861.473647 530.151549,861.364989 L530.151549,860.590816 L542.342216,860.590816 L542.342216,861.364989 C540.756087,861.446482 539.692836,861.697747 539.152429,862.118791 C538.612024,862.539833 538.341824,863.443027 538.341824,864.828398 L538.341824,884.875411 C538.341824,885.337202 538.422533,885.700516 538.583953,885.965367 C538.745373,886.230216 539.099791,886.396593 539.647216,886.464504 C539.970056,886.505251 540.310436,886.532413 540.668367,886.545996 C541.0263,886.559578 541.696533,886.566369 542.679091,886.566369 C546.511064,886.566369 549.100764,886.260778 550.448271,885.649584 C551.795778,885.038391 553.101156,883.47648 554.364444,880.963798 L555.459289,880.963798 L553.35382,888.196207 L530.151549,888.196207 L530.151549,887.442407 Z M559.365636,887.442407 C560.951764,887.279422 561.979924,887.004389 562.450147,886.617302 C562.920371,886.230213 563.15548,885.248924 563.15548,883.673404 L563.15548,865.113618 C563.15548,863.633173 562.92388,862.665467 562.460676,862.210469 C561.997469,861.755469 560.9658,861.473647 559.365636,861.364989 L559.365636,860.590816 L582.27314,860.590816 L582.420522,866.580473 L581.325678,866.580473 C580.960729,864.733313 580.413311,863.538111 579.683413,862.994829 C578.953513,862.451547 577.3253,862.179909 574.798724,862.179909 L568.94552,862.179909 C568.313876,862.179909 567.924369,862.278378 567.776984,862.475318 C567.6296,862.672258 567.555911,863.042362 567.555911,863.585644 L567.555911,872.896098 L574.188138,872.896098 C576.026924,872.896098 577.198956,872.631251 577.704271,872.101551 C578.209587,871.571851 578.61664,870.498884 578.925444,868.88262 L579.936069,868.88262 L579.936069,878.539413 L578.925444,878.539413 C578.602604,876.923149 578.188531,875.853578 577.683218,875.330669 C577.177902,874.80776 576.012887,874.546309 574.188138,874.546309 L567.555911,874.546309 L567.555911,884.875411 C567.555911,885.703918 567.826109,886.192864 568.366516,886.342267 C568.906922,886.491669 570.524609,886.566369 573.219622,886.566369 C576.13922,886.566369 578.293796,886.257382 579.683413,885.639398 C581.073029,885.021416 582.322262,883.524016 583.431147,881.147156 L584.631264,881.147156 L582.673178,888.196207 L559.365636,888.196207 L559.365636,887.442407 Z M596.664722,873.914747 C599.766796,873.806091 601.984536,873.493709 603.318004,872.977589 C605.60596,872.067591 606.74992,870.356278 606.74992,867.843598 C606.74992,865.425991 605.725269,863.775798 603.675936,862.892964 C602.581087,862.417591 601.128327,862.179909 599.317613,862.179909 C598.096436,862.179909 597.349002,862.264796 597.075289,862.434571 C596.801578,862.604347 596.664722,863.001616 596.664722,863.626391 L596.664722,873.914747 Z M588.579722,887.442407 C590.236031,887.293004 591.267702,886.980622 591.674762,886.505249 C592.08182,886.029878 592.285347,884.922958 592.285347,883.184453 L592.285347,865.113618 C592.285347,863.646756 592.057258,862.68584 591.601069,862.230842 C591.144882,861.775842 590.137776,861.487229 588.579722,861.364989 L588.579722,860.590816 L600.517731,860.590816 C603.002198,860.590816 605.072556,860.896409 606.728864,861.5076 C609.873049,862.662076 611.445116,864.787636 611.445116,867.884344 C611.445116,869.962398 610.746809,871.558267 609.350176,872.671996 C607.95354,873.785724 606.055127,874.519144 603.65488,874.872278 L612.53996,885.445856 C613.087384,886.097793 613.634802,886.573158 614.182227,886.871964 C614.729651,887.170769 615.431467,887.360916 616.287696,887.442407 L616.287696,888.196207 L609.339647,888.196207 L599.064958,875.361229 L596.664722,875.463093 L596.664722,883.673404 C596.664722,885.22176 596.906849,886.203049 597.391109,886.617302 C597.875371,887.031553 598.931602,887.306587 600.55984,887.442407 L600.55984,888.196207 L588.579722,888.196207 L588.579722,887.442407 Z M638.385296,868.169567 C638.385296,865.616151 637.248353,863.86408 634.974436,862.913336 C633.753258,862.397218 632.209262,862.139162 630.342404,862.139162 C629.458102,862.139162 628.914196,862.224049 628.710664,862.393824 C628.507136,862.563602 628.405371,862.940498 628.405371,863.524527 L628.405371,874.403698 C629.177382,874.471609 629.682689,874.512353 629.921309,874.525936 C630.159931,874.539518 630.391531,874.546309 630.616116,874.546309 C632.595264,874.546309 634.153298,874.274673 635.290256,873.731391 C637.353627,872.7399 638.385296,870.885978 638.385296,868.169567 Z M620.425644,887.442407 C622.067918,887.293004 623.092569,886.977227 623.499629,886.495064 C623.906689,886.0129 624.110216,884.909376 624.110216,883.184453 L624.110216,865.113618 C624.110216,863.660338 623.882124,862.702818 623.425938,862.241029 C622.969751,861.779238 621.969662,861.487229 620.425644,861.364989 L620.425644,860.590816 L631.795178,860.590816 C635.444676,860.590816 638.237902,861.2767 640.174944,862.648487 C642.111987,864.020276 643.080491,865.826662 643.080491,868.0677 C643.080491,870.906351 642.006713,872.964002 639.859124,874.240716 C637.711536,875.517429 635.02358,876.155776 631.795178,876.155776 C631.331971,876.155776 630.738938,876.145589 630.016056,876.125216 C629.293176,876.104842 628.756284,876.094656 628.405371,876.094656 L628.405371,883.673404 C628.405371,885.248924 628.654516,886.2404 629.152813,886.64786 C629.651111,887.055322 630.763489,887.320169 632.489982,887.442407 L632.489982,888.196207 L620.425644,888.196207 L620.425644,887.442407 Z M647.071058,887.442407 C648.657187,887.279422 649.685347,887.004389 650.155569,886.617302 C650.625793,886.230213 650.860902,885.248924 650.860902,883.673404 L650.860902,865.113618 C650.860902,863.633173 650.629302,862.665467 650.166098,862.210469 C649.702891,861.755469 648.671222,861.473647 647.071058,861.364989 L647.071058,860.590816 L659.261724,860.590816 L659.261724,861.364989 C657.675596,861.446482 656.612344,861.697747 656.071938,862.118791 C655.531531,862.539833 655.261333,863.443027 655.261333,864.828398 L655.261333,884.875411 C655.261333,885.337202 655.342042,885.700516 655.503462,885.965367 C655.664882,886.230216 656.019298,886.396593 656.566724,886.464504 C656.889564,886.505251 657.229944,886.532413 657.587876,886.545996 C657.945807,886.559578 658.616042,886.566369 659.5986,886.566369 C663.430571,886.566369 666.020273,886.260778 667.36778,885.649584 C668.715287,885.038391 670.020664,883.47648 671.283953,880.963798 L672.378796,880.963798 L670.273327,888.196207 L647.071058,888.196207 L647.071058,887.442407 Z M695.044873,877.480018 L690.054911,865.989658 L685.128113,877.480018 L695.044873,877.480018 Z M676.432527,888.196207 L676.432527,887.442407 C677.541413,887.320169 678.373064,886.912713 678.927507,886.220029 C679.481951,885.527344 680.432911,883.646258 681.780418,880.576711 L690.770771,860.101864 L691.61296,860.101864 L702.350851,883.754898 C703.066716,885.330416 703.638696,886.304913 704.066809,886.67842 C704.494922,887.051927 705.214284,887.306587 706.224916,887.442407 L706.224916,888.196207 L695.25542,888.196207 L695.25542,887.442407 C696.518709,887.333751 697.332816,887.201327 697.697764,887.045133 C698.062716,886.88894 698.245187,886.505253 698.245187,885.89406 C698.245187,885.690329 698.175004,885.330411 698.03464,884.814293 C697.894276,884.298173 697.697767,883.7549 697.445109,883.184453 L695.65546,879.170976 L684.370144,879.170976 C683.247222,881.900969 682.576989,883.568142 682.359422,884.172544 C682.141856,884.776944 682.033073,885.255704 682.033073,885.608838 C682.033073,886.315107 682.327838,886.804053 682.917371,887.075693 C683.282322,887.238678 683.9701,887.360916 684.980731,887.442407 L684.980731,888.196207 L676.432527,888.196207 Z M705.878213,860.590816 L730.238491,860.590816 L730.470093,867.680613 L729.438413,867.680613 C728.933098,865.453158 728.290938,864.003293 727.511909,863.330982 C726.732882,862.658671 725.094142,862.32252 722.59564,862.32252 L720.195404,862.32252 L720.195404,883.673404 C720.195404,885.289671 720.455076,886.291331 720.974429,886.67842 C721.49378,887.065509 722.630722,887.320169 724.385289,887.442407 L724.385289,888.196207 L711.815638,888.196207 L711.815638,887.442407 C713.640387,887.306587 714.777329,887.014578 715.226498,886.566369 C715.675667,886.11816 715.900247,884.990867 715.900247,883.184453 L715.900247,862.32252 L713.500013,862.32252 C711.113802,862.32252 709.489098,862.655276 708.625851,863.320796 C707.762604,863.986318 707.113424,865.439576 706.678293,867.680613 L705.625558,867.680613 L705.878213,860.590816 Z M734.734371,887.442407 C736.320498,887.279422 737.34866,887.004389 737.818882,886.617302 C738.289107,886.230213 738.524216,885.248924 738.524216,883.673404 L738.524216,865.113618 C738.524216,863.633173 738.292616,862.665467 737.829411,862.210469 C737.366204,861.755469 736.334536,861.473647 734.734371,861.364989 L734.734371,860.590816 L757.641876,860.590816 L757.789258,866.580473 L756.694413,866.580473 C756.329464,864.733313 755.782047,863.538111 755.052147,862.994829 C754.322249,862.451547 752.694036,862.179909 750.16746,862.179909 L744.314256,862.179909 C743.682611,862.179909 743.293102,862.278378 743.14572,862.475318 C742.998336,862.672258 742.924644,863.042362 742.924644,863.585644 L742.924644,872.896098 L749.556873,872.896098 C751.395658,872.896098 752.567691,872.631251 753.073007,872.101551 C753.578322,871.571851 753.985376,870.498884 754.294178,868.88262 L755.304804,868.88262 L755.304804,878.539413 L754.294178,878.539413 C753.971338,876.923149 753.557267,875.853578 753.051951,875.330669 C752.546638,874.80776 751.381622,874.546309 749.556873,874.546309 L742.924644,874.546309 L742.924644,884.875411 C742.924644,885.703918 743.194844,886.192864 743.735251,886.342267 C744.275658,886.491669 745.893344,886.566369 748.588358,886.566369 C751.507956,886.566369 753.662531,886.257382 755.052147,885.639398 C756.441764,885.021416 757.690996,883.524016 758.799882,881.147156 L760,881.147156 L758.041913,888.196207 L734.734371,888.196207 L734.734371,887.442407 Z" id="AWEBPACKBOILERPLATE" stroke="#B19E6A" fill-opacity="0.25" fill="#000000"></path>
            </g>
        </g>
    </g>
</svg>