<?xml version="1.0" encoding="UTF-8"?>
<svg width="1000px" height="1000px" viewBox="0 0 1000 1000" version="1.1" xmlns="http://www.w3.org/2000/svg" xmlns:xlink="http://www.w3.org/1999/xlink">
    <title>Artboard</title>
    <g id="Artboard" stroke="none" stroke-width="1" fill="none" fill-rule="evenodd">
        <rect fill="#3880FF" x="0" y="0" width="1000" height="1000"></rect>
        <g id="tb-initials-logo-a-copy" transform="translate(100.000000, 138.000000)" fill-rule="nonzero">
            <g id="text4533-2-2-9-3-0-6" transform="translate(270.270688, 0.000000)" fill="#333A56">
                <path d="M272.526046,202.194483 C321.719564,202.194483 365.802062,213.055388 404.773541,234.7772 C443.74502,256.499012 474.09167,286.845659 495.813491,325.817141 C518.174154,364.788626 529.354485,409.82944 529.354485,460.939582 C529.354485,512.049715 518.174154,557.409972 495.813491,597.020353 C474.09167,635.991832 443.74502,666.338482 404.773541,688.060302 C365.802062,709.782093 321.719564,720.642989 272.526046,720.642989 C234.83231,720.642989 200.332959,713.295904 169.027993,698.601733 C137.723029,683.907591 111.848519,662.505221 91.4044631,634.394623 L91.4044631,714.893098 L3.23946337,714.893098 L3.23946337,3.82323799 L95.2377209,3.82323799 L95.2377209,283.651275 C115.68178,256.818449 141.236853,236.693831 171.902938,223.277418 C202.569018,209.222128 236.110054,202.194483 272.526046,202.194483 Z M264.859495,640.144514 C297.442226,640.144514 326.511132,632.797428 352.066213,618.103257 C378.260137,602.770214 398.704185,581.68728 413.398356,554.854455 C428.731399,527.382758 436.39792,496.0778 436.39792,460.939582 C436.39792,425.801361 428.731399,394.815837 413.398356,367.983012 C398.704185,340.511309 378.260137,319.428375 352.066213,304.73421 C326.511132,290.040042 297.442226,282.692958 264.859495,282.692958 C232.915665,282.692958 203.846774,290.040042 177.652821,304.73421 C151.458879,319.428375 131.014824,340.511309 116.320656,367.983012 C101.626491,394.815837 94.2794087,425.801361 94.2794087,460.939582 C94.2794087,496.0778 101.626491,527.382758 116.320656,554.854455 C131.014824,581.68728 151.458879,602.770214 177.652821,618.103257 C203.846774,632.797428 232.915665,640.144514 264.859495,640.144514 L264.859495,640.144514 Z" id="path4153"></path>
            </g>
            <polygon id="rect4254-6-3-2" fill="#333A56" transform="translate(655.711259, 692.748551) scale(-1, 1) translate(-655.711259, -692.748551) " points="520.22105 668.162137 791.201469 668.162137 791.201469 717.334966 520.22105 717.334966"></polygon>
            <g id="text4159-2" transform="translate(0.584010, 91.653813)" fill="#AACCFF">
                <path d="M362.209749,624.66874 C362.209749,624.66874 339.736572,625.021948 295.666941,624.681746 C295.666941,624.681746 267.892639,624.750197 246.809704,624.654366 C195.700152,624.450381 161.534435,611.826084 133.423901,584.354336 C105.313367,556.882587 91.258031,517.591663 91.258031,466.481564 L91.258031,187.611835 L5.00966126,187.611835 L5.00966126,111.904932 L91.258031,111.904932 L91.258031,0.740366958 L183.256292,0.740366958 L183.256292,111.904932 L328.920205,111.904932 L328.920205,187.611835 L183.256292,187.611835 L183.256292,462.648303 C183.256292,490.120051 189.964499,511.202986 203.380912,525.897107 C217.436247,540.591228 237.24298,548.227084 262.796455,547.938357 C291.812597,547.609792 346.683947,549.596516 361.645712,542.987016 L362.209749,624.66874 Z" id="path4166-3"></path>
            </g>
        </g>
    </g>
</svg>