<?xml version="1.0" encoding="UTF-8"?>
<svg width="800px" height="450px" viewBox="0 0 800 450" version="1.1" xmlns="http://www.w3.org/2000/svg" xmlns:xlink="http://www.w3.org/1999/xlink">
    <title>hundred-days-code-1 2</title>
    <g id="Page-1" stroke="none" stroke-width="1" fill="none" fill-rule="evenodd">
        <g id="hundred-days-code-1">
            <rect id="Rectangle" fill="#20315F" fill-rule="nonzero" x="0" y="0" width="800" height="441.159384"></rect>
            <rect id="Rectangle" fill="#437099" fill-rule="nonzero" x="277" y="216.658275" width="258" height="137.249586"></rect>
            <polygon id="Path-2" points="541.757122 202.933317 562 72.5462098 260.819272 72.5462098 284.093954 202.933317"></polygon>
            <g id="Group" transform="translate(121.500000, 336.751663) rotate(-15.000000) translate(-121.500000, -336.751663) translate(43.000000, 242.147484)" fill-rule="nonzero">
                <path d="M42.6206324,7.89394367 C42.5498051,7.41220112 42.0148858,7.06536323 41.4260228,7.11937489 C41.422903,7.11969157 41.4198836,7.11992635 41.4167637,7.12024302 L32.1844862,7.97161029 L4.91699237,10.4851335 C4.33315483,10.5370258 3.91273639,10.9633177 3.97368266,11.4415648 L7.30988725,39.5420635 C7.36398292,39.9945273 7.83124478,40.3413415 8.38710406,40.3415978 L8.5095338,40.3420873 L46.0832835,36.9814006 C46.6723525,36.9285418 47.0934462,36.4950114 47.0239272,36.0131095 C47.0234087,36.0094045 47.0228906,36.0057819 47.0222714,36.0020765 L42.6206324,7.89394367 Z" id="Path" fill="#487D9B" transform="translate(25.499623, 23.727960) rotate(-12.000000) translate(-25.499623, -23.727960) "></path>
                <path d="M72.2756703,39.0584998 L59.3605128,8.0555036 C59.2176822,7.71413728 58.8803067,7.4784441 58.4817143,7.44150055 L37.7150762,5.52769092 C37.1258888,5.46099574 36.5738459,5.84829697 36.482063,6.3927411 C36.4800155,6.40504555 36.4781717,6.41744109 36.4765333,6.42983329 L31.5721729,38.729219 C31.4848722,39.2819913 31.8991371,39.7807374 32.4975293,39.8430353 C32.5062375,39.8439321 32.5150498,39.8447328 32.5237611,39.8454407 L70.7799454,43.2512328 L70.904765,43.2492043 C71.4714462,43.2422606 71.9528423,42.838739 72.0145665,42.3189481 L72.3447011,39.5205679 C72.3618478,39.362463 72.3381544,39.2041722 72.2756703,39.0584998 Z" id="Path" fill="#32597F" transform="translate(51.955339, 24.385727) rotate(104.000000) translate(-51.955339, -24.385727) "></path>
                <path d="M117.292392,166.947837 L15.4170295,166.540401 L14.8297151,22.3034979 L116.702396,22.7108595 C121.13887,22.7285997 124.751457,26.4656212 124.770151,31.0565029 L125.289835,158.666369 C125.308455,163.257251 121.728864,166.965514 117.292392,166.947837 Z" id="Path" fill="#081833" transform="translate(70.059775, 94.625667) rotate(-12.000000) translate(-70.059775, -94.625667) "></path>
                <polygon id="Path" fill="#32597F" transform="translate(45.000000, 180.586471) rotate(-12.000000) translate(-45.000000, -180.586471) " points="53.0211735 187.486858 45.0055935 181.960156 37.0347612 187.422933 36.9788265 173.686085 52.9652388 173.75001"></polygon>
                <path d="M52.7409569,86.744575 C53.5983451,86.744575 54.2695328,86.9965378 54.7545201,87.5004638 C55.2481678,88.0043898 55.4949917,88.7470174 55.4949917,89.7283468 L55.4949917,93.7730156 L54.5726498,93.7730156 L54.5726498,89.8211753 C54.5726498,89.0962293 54.3994401,88.5436789 54.0530206,88.1635242 C53.7152617,87.7833696 53.2346047,87.5932923 52.6110496,87.5932923 C51.9008897,87.5932923 51.3422883,87.8187329 50.9352454,88.2696139 C50.5282026,88.7116543 50.3246811,89.3260903 50.3246811,90.1129219 L50.3246811,93.7730156 L49.4023393,93.7730156 L49.4023393,89.8211753 C49.4023393,89.0962293 49.2291296,88.5436789 48.8827101,88.1635242 C48.5449511,87.7833696 48.0599639,87.5932923 47.4277483,87.5932923 C46.7262489,87.5932923 46.1676475,87.8187329 45.7519442,88.2696139 C45.3449013,88.7116543 45.1413798,89.3260903 45.1413798,90.1129219 L45.1413798,93.7730156 L44.219038,93.7730156 L44.219038,86.7976198 L45.1024077,86.7976198 L45.1024077,88.0706957 C45.3449013,87.6463371 45.6826603,87.3192273 46.1156846,87.0893663 C46.5487089,86.8595054 47.0466869,86.744575 47.6096186,86.744575 C48.1812107,86.744575 48.6748584,86.8683462 49.0905618,87.1158887 C49.5149256,87.3634313 49.8310334,87.7303247 50.0388851,88.2165691 C50.2900392,87.7568472 50.6494494,87.3987945 51.1171157,87.1424112 C51.5934424,86.877187 52.1347228,86.744575 52.7409569,86.744575 L52.7409569,86.744575 Z M40.2566055,93.8497529 C39.5984086,93.8497529 39.0051652,93.6994591 38.4768755,93.3988717 C37.9485858,93.0894435 37.5328825,92.6650849 37.2297654,92.1257957 C36.9266484,91.5865065 36.7750899,90.9764909 36.7750899,90.2957489 C36.7750899,89.6150068 36.9266484,89.0049912 37.2297654,88.4657021 C37.5328825,87.9264129 37.9485858,87.5064747 38.4768755,87.2058873 C39.0051652,86.9052999 39.5984086,86.7550062 40.2566055,86.7550062 C40.9148025,86.7550062 41.5080459,86.9052999 42.0363356,87.2058873 C42.5646252,87.5064747 42.9759984,87.9264129 43.2704549,88.4657021 C43.5735719,89.0049912 43.7251305,89.6150068 43.7251305,90.2957489 C43.7251305,90.9764909 43.5735719,91.5865065 43.2704549,92.1257957 C42.9759984,92.6650849 42.5646252,93.0894435 42.0363356,93.3988717 C41.5080459,93.6994591 40.9148025,93.8497529 40.2566055,93.8497529 L40.2566055,93.8497529 Z M40.2566055,93.0142967 C40.7415928,93.0142967 41.1746171,92.9037866 41.5556785,92.6827665 C41.9454004,92.4529055 42.2485175,92.1302162 42.4650296,91.7146982 C42.6815418,91.2991804 42.7897979,90.8261973 42.7897979,90.2957489 C42.7897979,89.7653006 42.6815418,89.2923175 42.4650296,88.8767996 C42.2485175,88.4612817 41.9454004,88.1430127 41.5556785,87.9219926 C41.1746171,87.6921316 40.7415928,87.5772011 40.2566055,87.5772011 C39.7716183,87.5772011 39.3342637,87.6921316 38.9445418,87.9219926 C38.5634804,88.1430127 38.2603634,88.4612817 38.0351907,88.8767996 C37.8186785,89.2923175 37.7104225,89.7653006 37.7104225,90.2957489 C37.7104225,90.8261973 37.8186785,91.2991804 38.0351907,91.7146982 C38.2603634,92.1302162 38.5634804,92.4529055 38.9445418,92.6827665 C39.3342637,92.9037866 39.7716183,93.0142967 40.2566055,93.0142967 Z M33.4939238,86.6986314 C34.351312,86.6986314 35.0311602,86.9550148 35.5334684,87.4677816 C36.0444371,87.9717075 36.2999215,88.7099148 36.2999215,89.6824034 L36.2999215,93.7270721 L35.3775796,93.7270721 L35.3775796,89.7752319 C35.3775796,89.0502858 35.2000397,88.4977355 34.8449597,88.1175808 C34.4898797,87.7374261 33.9832413,87.5473489 33.3250443,87.5473489 C32.5889029,87.5473489 32.0043201,87.7727893 31.5712957,88.2236704 C31.1469319,88.6657107 30.93475,89.2801467 30.93475,90.0669784 L30.93475,93.7270721 L30.0124081,93.7270721 L30.0124081,83.8872552 L30.93475,83.8872552 L30.93475,87.9717075 C31.1859041,87.5650304 31.5323235,87.2511818 31.9740084,87.0301616 C32.4156932,86.8091416 32.9223317,86.6986314 33.4939238,86.6986314 L33.4939238,86.6986314 Z M64.83406,93.7838373 C64.2797888,93.7838373 63.7471689,93.7042701 63.2362002,93.5451356 C62.733892,93.3771603 62.3398398,93.1694013 62.0540438,92.9218587 L62.4697471,92.1792311 C62.7555432,92.409092 63.1149534,92.5991694 63.5479777,92.7494631 C63.981002,92.8909159 64.4313473,92.9616424 64.8990136,92.9616424 C65.5225687,92.9616424 65.9815777,92.8643935 66.2760408,92.6698959 C66.5791578,92.4665573 66.7307163,92.1836515 66.7307163,91.8211784 C66.7307163,91.5647951 66.6484417,91.3658769 66.4838924,91.2244241 C66.3193432,91.0741304 66.1114883,90.9636203 65.8603277,90.8928939 C65.6091735,90.8133266 65.2757448,90.7381798 64.8600414,90.6674533 C64.3057703,90.5613636 63.8597552,90.455274 63.5219962,90.3491843 C63.1842373,90.2342538 62.894111,90.0441765 62.6516173,89.7789523 C62.4177842,89.5137281 62.3008676,89.1468347 62.3008676,88.678272 C62.3008676,88.0947788 62.539031,87.6173753 63.0153578,87.2460614 C63.4916845,86.8747476 64.1542118,86.6890906 65.0029395,86.6890906 C65.4446243,86.6890906 65.8863124,86.7509763 66.3280037,86.8747476 C66.7696885,86.9896781 67.1334289,87.1443922 67.419225,87.3388899 L67.0165124,88.0947788 C66.4535807,87.6969426 65.7823898,87.4980244 65.0029395,87.4980244 C64.4140264,87.4980244 63.9680113,87.6041141 63.6648943,87.8162934 C63.3704377,88.0284728 63.2232095,88.3069582 63.2232095,88.6517496 C63.2232095,88.9169738 63.3054841,89.1291531 63.4700333,89.2882876 C63.6432431,89.4474221 63.855425,89.566773 64.1065791,89.6463402 C64.3577332,89.7170667 64.7041527,89.7922135 65.1458375,89.8717808 C65.6914482,89.9778704 66.128806,90.0839601 66.457911,90.1900497 C66.7870095,90.2961395 67.0684753,90.477376 67.3023084,90.7337594 C67.5361416,90.9901427 67.6530581,91.343775 67.6530581,91.794656 C67.6530581,92.4046716 67.401904,92.8909159 66.8995958,93.253389 C66.4059481,93.6070212 65.7174361,93.7838373 64.83406,93.7838373 L64.83406,93.7838373 Z M104.024673,92.9325347 L108.571429,92.9325347 L108.571429,93.7856449 L104.024673,93.7856449 L104.024673,92.9325347 Z M29.663672,93.3333896 C29.4904622,93.4925241 29.2739501,93.6162954 29.0141355,93.7047034 C28.7629814,93.7842706 28.4988365,93.8240543 28.2217009,93.8240543 C27.5808249,93.8240543 27.0871772,93.6472382 26.7407577,93.2936059 C26.3943383,92.9399737 26.2211285,92.4404682 26.2211285,91.7950893 L26.2211285,87.5780249 L24.9999999,87.5780249 L24.9999999,86.7823524 L26.2211285,86.7823524 L26.2211285,85.2573134 L27.1434704,85.2573134 L27.1434704,86.7823524 L29.2219872,86.7823524 L29.2219872,87.5780249 L27.1434704,87.5780249 L27.1434704,91.7420445 C27.1434704,92.1575624 27.243066,92.4758314 27.4422571,92.6968516 C27.6501088,92.9090309 27.9445654,93.0151205 28.3256268,93.0151205 C28.5161575,93.0151205 28.6980277,92.9841777 28.8712374,92.9222921 C29.0531077,92.8604064 29.2089964,92.7719984 29.3389037,92.6570679 L29.663672,93.3333896 L29.663672,93.3333896 Z M58.8566354,86.6890906 C59.7486655,86.6890906 60.4328439,86.9189516 60.9091707,87.3786735 C61.3854975,87.8295546 61.6236609,88.5014558 61.6236609,89.3943772 L61.6236609,93.7175314 L60.7402912,93.7175314 L60.7402912,92.6301122 C60.5324395,92.9925852 60.2249923,93.275491 59.8179494,93.4788295 C59.419567,93.6821681 58.9432402,93.7838373 58.3889691,93.7838373 C57.6268463,93.7838373 57.0206122,93.5981804 56.5702669,93.2268666 C56.1199216,92.8555528 55.8947489,92.3648881 55.8947489,91.7548724 C55.8947489,91.1625384 56.1026006,90.6851349 56.518304,90.3226619 C56.9426678,89.9601888 57.6138555,89.7789523 58.5318671,89.7789523 L60.701319,89.7789523 L60.701319,89.3545937 C60.701319,88.7534188 60.5367698,88.2981173 60.2076713,87.9886891 C59.8785728,87.6704202 59.3979158,87.5112857 58.7657003,87.5112857 C58.3326759,87.5112857 57.9169726,87.5864324 57.5185902,87.7367261 C57.1202078,87.8781791 56.7781186,88.0770972 56.4923225,88.3334806 L56.0766191,87.6306365 C56.4230386,87.3300491 56.838742,87.1001881 57.3237292,86.9410536 C57.8087165,86.7730784 58.3196852,86.6890906 58.8566354,86.6890906 L58.8566354,86.6890906 Z M58.5318671,93.0412097 C59.0514963,93.0412097 59.4975114,92.9218587 59.8699123,92.683157 C60.2423132,92.4356144 60.5194488,92.0819822 60.701319,91.6222603 L60.701319,90.4817964 L58.5578486,90.4817964 C57.3886829,90.4817964 56.8041,90.8973142 56.8041,91.72835 C56.8041,92.1350271 56.9556585,92.4577165 57.2587756,92.6964183 C57.5618926,92.9262792 57.9862565,93.0412097 58.5318671,93.0412097 L58.5318671,93.0412097 Z M104.272474,86.5422838 C104.947992,86.5422838 105.549896,86.6925775 106.078186,86.9931649 C106.615136,87.2937523 107.03517,87.718111 107.338287,88.2662409 C107.641404,88.8143709 107.792962,89.4464885 107.792962,90.1625937 C107.792962,90.878699 107.641404,91.515237 107.338287,92.0722078 C107.03517,92.6203378 106.615136,93.0446964 106.078186,93.3452839 C105.549896,93.6458713 104.947992,93.796165 104.272474,93.796165 C103.337142,93.796165 102.59667,93.4778959 102.05106,92.8413579 L102.05106,96.276011 L100.427218,96.276011 L100.427218,86.6218511 L101.973115,86.6218511 L101.973115,87.5501356 C102.24159,87.214185 102.570689,86.9622221 102.960411,86.7942468 C103.358793,86.6262715 103.796148,86.5422838 104.272474,86.5422838 L104.272474,86.5422838 Z M104.090604,92.3772156 C104.688178,92.3772156 105.177495,92.1738771 105.558557,91.7672 C105.948279,91.3605229 106.14314,90.8256542 106.14314,90.1625937 C106.14314,89.4995333 105.948279,88.9646646 105.558557,88.5579876 C105.177495,88.1513105 104.688178,87.9479719 104.090604,87.9479719 C103.700882,87.9479719 103.350133,88.0408003 103.038355,88.2264573 C102.726578,88.4032735 102.479754,88.6596568 102.297884,88.9956074 C102.116013,89.331558 102.025078,89.7205535 102.025078,90.1625937 C102.025078,90.6046341 102.116013,90.9936295 102.297884,91.3295801 C102.479754,91.6655307 102.726578,91.9263346 103.038355,92.1119915 C103.350133,92.2888076 103.700882,92.3772156 104.090604,92.3772156 Z M96.2914245,93.796165 C95.5899251,93.796165 94.9577096,93.6414509 94.3947779,93.3320227 C93.8318463,93.0225944 93.3901615,92.5938154 93.0697235,92.0456854 C92.757946,91.4887146 92.6020572,90.8610175 92.6020572,90.1625937 C92.6020572,89.4641701 92.757946,88.8408933 93.0697235,88.2927633 C93.3901615,87.7446334 93.8318463,87.3158543 94.3947779,87.0064261 C94.9577096,86.6969979 95.5899251,86.5422838 96.2914245,86.5422838 C97.0015844,86.5422838 97.6381302,86.6969979 98.2010618,87.0064261 C98.7639935,87.3158543 99.2013481,87.7446334 99.5131256,88.2927633 C99.8335636,88.8408933 99.9937826,89.4641701 99.9937826,90.1625937 C99.9937826,90.8610175 99.8335636,91.4887146 99.5131256,92.0456854 C99.2013481,92.5938154 98.7639935,93.0225944 98.2010618,93.3320227 C97.6381302,93.6414509 97.0015844,93.796165 96.2914245,93.796165 Z M96.2914245,92.3772156 C96.8889981,92.3772156 97.3826459,92.1738771 97.7723678,91.7672 C98.1620897,91.3605229 98.3569506,90.8256542 98.3569506,90.1625937 C98.3569506,89.4995333 98.1620897,88.9646646 97.7723678,88.5579876 C97.3826459,88.1513105 96.8889981,87.9479719 96.2914245,87.9479719 C95.6938509,87.9479719 95.2002032,88.1513105 94.8104813,88.5579876 C94.4294199,88.9646646 94.2388892,89.4995333 94.2388892,90.1625937 C94.2388892,90.8256542 94.4294199,91.3605229 94.8104813,91.7672 C95.2002032,92.1738771 95.6938509,92.3772156 96.2914245,92.3772156 L96.2914245,92.3772156 Z M89.1604523,86.5837251 C90.0351615,86.5837251 90.7366609,86.8445288 91.2649506,87.3661364 C91.7932403,87.8877439 92.0573851,88.6613144 92.0573851,89.686848 L92.0573851,93.7447777 L90.4335439,93.7447777 L90.4335439,89.8990273 C90.4335439,89.2801709 90.2906458,88.8160285 90.0048498,88.5066003 C89.7190537,88.1883313 89.3120108,88.0291969 88.7837211,88.0291969 C88.1861476,88.0291969 87.714151,88.2148538 87.3677316,88.5861675 C87.0213121,88.9486407 86.8481024,89.4746685 86.8481024,90.1642514 L86.8481024,93.7447777 L85.2242611,93.7447777 L85.2242611,83.9049609 L86.8481024,83.9049609 L86.8481024,87.4854872 C87.1165775,87.1937407 87.445676,86.9727205 87.8353979,86.8224268 C88.2337802,86.6632923 88.6754651,86.5837251 89.1604523,86.5837251 Z M81.4682254,93.796165 C80.9052937,93.796165 80.3553528,93.7210181 79.8184027,93.5707244 C79.2814525,93.4204307 78.8527584,93.2303534 78.5323204,93.0004925 L79.1558754,91.7406776 C79.4676529,91.952857 79.8400539,92.1252526 80.2730782,92.2578648 C80.714763,92.381636 81.1477874,92.4435217 81.5721512,92.4435217 C82.5421257,92.4435217 83.027113,92.182718 83.027113,91.6611104 C83.027113,91.4135678 82.9015359,91.2411721 82.6503818,91.1439232 C82.4078882,91.0466744 82.013836,90.9538459 81.4682254,90.8654378 C80.8966332,90.7770298 80.428967,90.6753606 80.0652265,90.56043 C79.7101466,90.4454996 79.398369,90.2465815 79.129894,89.9636757 C78.8700794,89.671929 78.7401721,89.2696724 78.7401721,88.7569056 C78.7401721,88.0850044 79.0129774,87.5501356 79.5585881,87.1522994 C80.1128592,86.7456224 80.8576611,86.5422838 81.7929936,86.5422838 C82.2693204,86.5422838 82.7456472,86.599749 83.2219739,86.7146795 C83.6983007,86.8207692 84.0880226,86.9666424 84.3911396,87.1522994 L83.7675846,88.4121142 C83.1786715,88.058482 82.5161443,87.8816659 81.7800029,87.8816659 C81.3036761,87.8816659 80.9399357,87.9568127 80.6887816,88.1071064 C80.4462879,88.2485594 80.3250411,88.4386366 80.3250411,88.6773384 C80.3250411,88.9425626 80.4549484,89.1326399 80.714763,89.2475704 C80.9832381,89.3536601 81.3946112,89.4553293 81.9488824,89.5525782 C82.5031535,89.6409862 82.9578291,89.7426555 83.312909,89.857586 C83.667989,89.9725165 83.971106,90.1670142 84.2222601,90.4410791 C84.4820747,90.7151441 84.611982,91.1041396 84.611982,91.6080655 C84.611982,92.271126 84.3305162,92.8015743 83.7675846,93.1994105 C83.2046529,93.5972468 82.4381999,93.796165 81.4682254,93.796165 L81.4682254,93.796165 Z M76.4429498,86.6875742 L78.0667911,86.6875742 L78.0667911,93.7690597 L76.4429498,93.7690597 L76.4429498,86.6875742 Z M77.2613658,85.5205879 C76.9669093,85.5205879 76.7200854,85.4277594 76.5208942,85.2421025 C76.321703,85.0476048 76.2221074,84.8089031 76.2221074,84.5259973 C76.2221074,84.2430914 76.321703,84.0088101 76.5208942,83.8231532 C76.7200854,83.6286554 76.9669093,83.5314066 77.2613658,83.5314066 C77.5558224,83.5314066 77.8026462,83.624235 78.0018374,83.809892 C78.2010286,83.986708 78.3006242,84.2121486 78.3006242,84.4862136 C78.3006242,84.7779602 78.2010286,85.0255028 78.0018374,85.2288413 C77.8113067,85.4233391 77.5644828,85.5205879 77.2613658,85.5205879 Z M72.4962264,86.5770576 C73.1717443,86.5770576 73.7736482,86.7273514 74.3019379,87.0279388 C74.838888,87.3285262 75.2589216,87.7528848 75.5620387,88.3010148 C75.8651557,88.8491447 76.0167142,89.4812624 76.0167142,90.1973677 C76.0167142,90.9134729 75.8651557,91.550011 75.5620387,92.1069817 C75.2589216,92.6551117 74.838888,93.0794704 74.3019379,93.3800578 C73.7736482,93.6806451 73.1717443,93.8309388 72.4962264,93.8309388 C72.0198996,93.8309388 71.582545,93.7469512 71.1841627,93.5789758 C70.7944408,93.4110006 70.4653423,93.1590376 70.1968672,92.823087 L70.1968672,93.7381104 L68.6509703,93.7381104 L68.6509703,83.8982935 L70.2748115,83.8982935 L70.2748115,87.5186035 C70.5519471,87.2091753 70.8767154,86.974894 71.2491163,86.8157595 C71.6301777,86.6566249 72.0458811,86.5770576 72.4962264,86.5770576 L72.4962264,86.5770576 Z M72.3143562,92.4119895 C72.9119297,92.4119895 73.4012472,92.208651 73.7823087,91.8019739 C74.1720306,91.3952969 74.3668915,90.8604281 74.3668915,90.1973677 C74.3668915,89.5343072 74.1720306,88.9994385 73.7823087,88.5927614 C73.4012472,88.1860843 72.9119297,87.9827458 72.3143562,87.9827458 C71.9246343,87.9827458 71.5738846,88.0755743 71.262107,88.2612312 C70.9503295,88.4380473 70.7035056,88.6944307 70.5216354,89.0303813 C70.3397652,89.3663319 70.2488301,89.7553274 70.2488301,90.1973677 C70.2488301,90.6394079 70.3397652,91.0284034 70.5216354,91.3643541 C70.7035056,91.7003047 70.9503295,91.9611084 71.262107,92.1467653 C71.5738846,92.3235814 71.9246343,92.4119895 72.3143562,92.4119895 L72.3143562,92.4119895 Z" id="path4985-6" fill="#416F98" transform="translate(66.785714, 89.903709) rotate(-12.000000) translate(-66.785714, -89.903709) "></path>
                <polygon id="Rectangle" fill="#416F98" transform="translate(112.705026, 86.101444) rotate(-12.000000) translate(-112.705026, -86.101444) " points="108.914341 13.9690089 115.908397 13.9969763 116.495711 158.233879 109.501656 158.205912"></polygon>
                <polygon id="Combined-Shape" fill="#20315F" points="156.935328 42.2513314 146.935328 50.0941649 146.935328 42.2513314"></polygon>
            </g>
            <polygon id="Path-2" fill="#487D9B" fill-rule="nonzero" points="534.93785 214.697567 555.180728 89.2122309 254 89.2122309 277.274682 214.697567"></polygon>
            <polygon id="Path-2" fill-opacity="0.917149257" fill="#081833" fill-rule="nonzero" points="527.046292 208.815442 546 97.0550644 264 97.0550644 285.792432 208.815442"></polygon>
            <path d="M273.989964,240.756724 L273.989964,240.756724 C272.094192,240.757387 270.559194,239.325933 270.5598,237.557943 L270.561446,232.757972 L277.423967,232.755572 L277.422321,237.555544 C277.421715,239.323533 275.885735,240.756061 273.989964,240.756724 Z" id="Path" fill="#416F98" fill-rule="nonzero" transform="translate(273.991883, 236.756148) rotate(89.000000) translate(-273.991883, -236.756148) "></path>
            <path d="M273.49869,231.443285 L273.49869,231.443285 C271.602918,231.443948 270.06792,230.012493 270.068526,228.244504 L270.070172,223.444533 L276.932693,223.442133 L276.931047,228.242104 C276.930441,230.010094 275.394461,231.442622 273.49869,231.443285 Z" id="Path" fill="#416F98" fill-rule="nonzero" transform="translate(273.500609, 227.442709) rotate(89.000000) translate(-273.500609, -227.442709) "></path>
            <path d="M190.49869,197.130889 L190.49869,197.130889 C188.602918,197.131551 187.06792,195.700097 187.068526,193.932107 L187.070172,189.132136 L193.932693,189.129736 L193.931047,193.929708 C193.930441,195.697697 192.394461,197.130226 190.49869,197.130889 Z" id="Path" fill="#416F98" fill-rule="nonzero" transform="translate(190.500609, 193.130313) rotate(89.000000) translate(-190.500609, -193.130313) "></path>
            <g id="Group-5" transform="translate(684.500000, 367.142643) rotate(22.000000) translate(-684.500000, -367.142643) translate(638.000000, 321.556173)" fill-rule="nonzero">
                <ellipse id="Oval" fill="#416F98" cx="46.5" cy="45.5864697" rx="46.5" ry="45.5864697"></ellipse>
                <path d="M77.6437828,73.3393247 C77.6437828,73.3393247 72.6579452,68.3259851 70.4754782,66.1624955 C69.913789,65.6062185 69.8799523,64.7213101 70.3655089,64.0965682 C80.7499917,50.7476314 79.7365826,31.2847823 67.3032877,19.1425388 C54.8987541,7.02596957 34.8522021,6.64598957 22.0365525,18.3158256 C7.76930865,31.3070334 7.33450708,53.558114 20.7338397,67.114157 C31.7950564,78.304739 48.7117138,79.9530306 61.5036776,72.0675899 C62.2125564,71.6311264 63.1159963,71.723554 63.6861447,72.3346029 C65.8770709,74.6709664 71.0625449,79.9958211 71.0625449,79.9958211 C72.8728083,81.8272562 75.8335194,81.8272562 77.6420909,79.9958211 C79.4523543,78.164386 79.4523543,75.1690483 77.6437828,73.3393247 Z" id="Path" fill="#32597F"></path>
                <ellipse id="Oval" fill="#081833" cx="44.5" cy="43.6257613" rx="26.5" ry="26.9597401"></ellipse>
                <path d="M56.395093,29.4106256 C55.9847497,29.4106256 55.5744064,29.2490202 55.2618403,28.9274584 C53.973106,27.6016344 52.4984348,26.5050262 50.8843111,25.6706145 C50.0924769,25.2633029 49.7734991,24.2705839 50.1710191,23.4576097 C50.5653334,22.6446355 51.5302812,22.3148286 52.3221155,22.7237892 C54.2455995,23.7165082 55.9975729,25.0192458 57.5299486,26.595723 C58.1566838,27.2404957 58.1566838,28.2826857 57.5299486,28.9274584 C57.2157795,29.2506692 56.8054363,29.4106256 56.395093,29.4106256 Z" id="Path" fill-opacity="0.8" fill="#65C3C5"></path>
                <path d="M28.7526629,30.3909798 C28.3040933,30.3909798 27.8555238,30.2125636 27.5138399,29.8575521 C26.82872,29.1457082 26.82872,27.9951065 27.5138399,27.2832626 C32.2430947,22.3677171 38.7736366,19.9700232 45.4355954,20.7237402 C46.3975668,20.8329745 47.0932001,21.7305168 46.9898188,22.730011 C46.8829331,23.7276847 46.0278474,24.4449903 45.0588671,24.3448588 C39.4657654,23.7240436 33.9690362,25.7248527 29.9914858,29.8575521 C29.649802,30.2143843 29.2012324,30.3909798 28.7526629,30.3909798 Z" id="Path" fill-opacity="0.73" fill="#65C3C5"></path>
            </g>
            <rect id="Rectangle" fill="#6189AD" fill-rule="nonzero" x="277" y="228.422525" width="4" height="125.485336"></rect>
            <rect id="Rectangle" fill="#487D9B" fill-rule="nonzero" x="281" y="227.442171" width="23" height="126.46569"></rect>
            <rect id="Rectangle" fill="#487D9B" fill-rule="nonzero" x="277" y="216.658275" width="258" height="11.7642502"></rect>
            <polygon id="Rectangle" fill="#416F98" fill-rule="nonzero" transform="translate(268.044935, 151.546638) rotate(-10.000000) translate(-268.044935, -151.546638) " points="265.829424 88.2688639 269.827054 88.2823025 270.260447 214.824411 266.262816 214.810973"></polygon>
            <rect id="Rectangle" fill="#6189AD" fill-rule="nonzero" x="325" y="349.986444" width="150" height="3.92141674"></rect>
            <rect id="Rectangle" stroke="#83F4B6" stroke-width="5" opacity="0.386997768" x="370.5" y="310.2821" width="71" height="29.4106256"></rect>
            <rect id="Rectangle" fill="#32597F" fill-rule="nonzero" x="368" y="306.85086" width="76" height="33.3320423"></rect>
            <g id="var-j=1;-var-output" transform="translate(339.000000, 110.780023)" fill-rule="nonzero" font-family="Hack-Regular, Hack" font-size="4" font-weight="normal">
                <g id="var-j=1;" fill="#487D9B">
                    <text>
                        <tspan x="0" y="4">var j=1;</tspan>
                    </text>
                </g>
                <g id="var" transform="translate(0.000000, 4.901771)" fill="#487D9B">
                    <text>
                        <tspan x="0" y="4">var</tspan>
                    </text>
                </g>
                <g id="output" transform="translate(9.000000, 4.901771)" fill="#83F4B6">
                    <text>
                        <tspan x="0.632812" y="4">output</tspan>
                    </text>
                </g>
                <g id="=-&quot;&lt;table-border='1'" transform="translate(24.000000, 4.901771)" fill="#487D9B">
                    <text>
                        <tspan x="0.082031" y="4">= "&lt;table border='1'</tspan>
                    </text>
                </g>
                <g id="width" transform="translate(77.000000, 4.901771)" fill="#416F98">
                    <text>
                        <tspan x="0.0625" y="4">width</tspan>
                    </text>
                </g>
                <g id="='500'" transform="translate(89.000000, 4.901771)" fill="#487D9B">
                    <text>
                        <tspan x="0.103516" y="4">='500'</tspan>
                    </text>
                </g>
                <g id="cellspacing='0'cellpadding='5'&gt;&quot;;" transform="translate(0.000000, 9.803542)" fill="#487D9B">
                    <text>
                        <tspan x="0" y="4">cellspacing='0'cellpadding='5'&gt;";</tspan>
                    </text>
                </g>
                <g id="for(i=1;i&lt;=rows;i++)" transform="translate(0.000000, 14.705313)" fill="#487D9B">
                    <text>
                        <tspan x="0" y="4">for(i=1;i&lt;=rows;i++)</tspan>
                    </text>
                </g>
                <g id="{" transform="translate(0.000000, 19.607084)" fill="#487D9B">
                    <text>
                        <tspan x="0" y="4">{</tspan>
                    </text>
                </g>
                <g id="output" transform="translate(28.000000, 24.508855)" fill="#83F4B6">
                    <text>
                        <tspan x="0" y="4">output</tspan>
                    </text>
                </g>
                <g id="=" transform="translate(42.000000, 24.508855)" fill="#487D9B">
                    <text>
                        <tspan x="0.449219" y="4">=</tspan>
                    </text>
                </g>
                <g id="output" transform="translate(49.000000, 24.508855)" fill="#83F4B6">
                    <text>
                        <tspan x="0.673828" y="4">output</tspan>
                    </text>
                </g>
                <g id="+-&quot;&lt;tr&gt;&quot;;" transform="translate(64.000000, 24.508855)" fill="#487D9B">
                    <text>
                        <tspan x="0.123047" y="4">+ "&lt;tr&gt;";</tspan>
                    </text>
                </g>
            </g>
            <g id="Group" opacity="0.726143973" transform="translate(310.000000, 232.343942)" fill="#83F4B6" fill-rule="nonzero">
                <rect id="Rectangle" x="0" y="0" width="11" height="7.84283349" rx="3.92141674"></rect>
                <rect id="Rectangle" x="14" y="0" width="11" height="7.84283349" rx="3.92141674"></rect>
                <rect id="Rectangle" x="28" y="0" width="11" height="7.84283349" rx="3.92141674"></rect>
                <rect id="Rectangle" x="42" y="0" width="11" height="7.84283349" rx="3.92141674"></rect>
                <rect id="Rectangle" x="56" y="0" width="11" height="7.84283349" rx="3.92141674"></rect>
                <rect id="Rectangle" x="70" y="0" width="11" height="7.84283349" rx="3.92141674"></rect>
                <rect id="Rectangle" x="83" y="0" width="11" height="7.84283349" rx="3.92141674"></rect>
                <rect id="Rectangle" x="97" y="0" width="11" height="7.84283349" rx="3.92141674"></rect>
                <rect id="Rectangle" x="111" y="0" width="11" height="7.84283349" rx="3.92141674"></rect>
                <rect id="Rectangle" x="125" y="0" width="11" height="7.84283349" rx="3.92141674"></rect>
                <rect id="Rectangle" x="139" y="0" width="11" height="7.84283349" rx="3.92141674"></rect>
                <rect id="Rectangle" x="153" y="0" width="11" height="7.84283349" rx="3.92141674"></rect>
                <rect id="Rectangle" x="167" y="0" width="11" height="7.84283349" rx="3.92141674"></rect>
                <rect id="Rectangle" x="181" y="0" width="11" height="7.84283349" rx="3.92141674"></rect>
                <rect id="Rectangle" x="167" y="10.783896" width="25" height="8.82318768"></rect>
                <rect id="Rectangle" x="0" y="22.5481463" width="25" height="8.82318768"></rect>
                <rect id="Rectangle" x="0" y="34.3123965" width="25" height="8.82318768"></rect>
                <rect id="Rectangle" x="153" y="10.783896" width="11" height="8.82318768"></rect>
                <rect id="Rectangle" x="139" y="10.783896" width="11" height="8.82318768"></rect>
                <rect id="Rectangle" x="125" y="10.783896" width="11" height="8.82318768"></rect>
                <rect id="Rectangle" x="111" y="10.783896" width="11" height="8.82318768"></rect>
                <rect id="Rectangle" x="97" y="10.783896" width="11" height="8.82318768"></rect>
                <rect id="Rectangle" x="83" y="10.783896" width="11" height="8.82318768"></rect>
                <rect id="Rectangle" x="69" y="10.783896" width="11" height="8.82318768"></rect>
                <rect id="Rectangle" x="56" y="10.783896" width="11" height="8.82318768"></rect>
                <rect id="Rectangle" x="42" y="10.783896" width="11" height="8.82318768"></rect>
                <rect id="Rectangle" x="28" y="10.783896" width="11" height="8.82318768"></rect>
                <rect id="Rectangle" x="28" y="22.5481463" width="11" height="8.82318768"></rect>
                <rect id="Rectangle" x="42" y="22.5481463" width="11" height="8.82318768"></rect>
                <rect id="Rectangle" x="56" y="22.5481463" width="11" height="8.82318768"></rect>
                <rect id="Rectangle" x="70" y="22.5481463" width="11" height="8.82318768"></rect>
                <rect id="Rectangle" x="84" y="22.5481463" width="11" height="8.82318768"></rect>
                <rect id="Rectangle" x="97" y="22.5481463" width="11" height="8.82318768"></rect>
                <rect id="Rectangle" x="111" y="22.5481463" width="11" height="8.82318768"></rect>
                <rect id="Rectangle" x="125" y="22.5481463" width="11" height="8.82318768"></rect>
                <rect id="Rectangle" x="139" y="22.5481463" width="11" height="8.82318768"></rect>
                <rect id="Rectangle" x="153" y="22.5481463" width="11" height="8.82318768"></rect>
                <rect id="Rectangle" x="166" y="22.5481463" width="11" height="8.82318768"></rect>
                <rect id="Rectangle" x="28" y="34.3123965" width="11" height="8.82318768"></rect>
                <rect id="Rectangle" x="0" y="46.0766468" width="18" height="8.82318768"></rect>
                <rect id="Rectangle" x="42" y="34.3123965" width="11" height="8.82318768"></rect>
                <rect id="Rectangle" x="56" y="34.3123965" width="11" height="8.82318768"></rect>
                <rect id="Rectangle" x="70" y="34.3123965" width="11" height="8.82318768"></rect>
                <rect id="Rectangle" x="84" y="34.3123965" width="11" height="8.82318768"></rect>
                <rect id="Rectangle" x="97" y="34.3123965" width="11" height="8.82318768"></rect>
                <rect id="Rectangle" x="111" y="34.3123965" width="11" height="8.82318768"></rect>
                <rect id="Rectangle" x="125" y="34.3123965" width="11" height="8.82318768"></rect>
                <rect id="Rectangle" x="139" y="34.3123965" width="11" height="8.82318768"></rect>
                <rect id="Rectangle" x="153" y="34.3123965" width="11" height="8.82318768"></rect>
                <rect id="Rectangle" x="28" y="46.0766468" width="11" height="8.82318768"></rect>
                <rect id="Rectangle" x="42" y="46.0766468" width="11" height="8.82318768"></rect>
                <rect id="Rectangle" x="56" y="46.0766468" width="11" height="8.82318768"></rect>
                <rect id="Rectangle" x="70" y="46.0766468" width="11" height="8.82318768"></rect>
                <rect id="Rectangle" x="84" y="46.0766468" width="11" height="8.82318768"></rect>
                <rect id="Rectangle" x="28" y="57.840897" width="11" height="8.82318768"></rect>
                <rect id="Rectangle" x="14" y="57.840897" width="11" height="8.82318768"></rect>
                <rect id="Rectangle" x="0" y="57.840897" width="11" height="8.82318768"></rect>
                <rect id="Rectangle" x="42" y="57.840897" width="11" height="8.82318768"></rect>
                <rect id="Rectangle" x="56" y="57.840897" width="11" height="8.82318768"></rect>
                <rect id="Rectangle" x="125" y="57.840897" width="11" height="8.82318768"></rect>
                <rect id="Rectangle" x="139" y="57.840897" width="11" height="8.82318768"></rect>
                <rect id="Rectangle" x="153" y="57.840897" width="11" height="8.82318768"></rect>
                <rect id="Rectangle" x="175" y="55.8801886" width="9" height="4.90177093"></rect>
                <rect id="Rectangle" x="166" y="34.3123965" width="11" height="8.82318768"></rect>
                <rect id="Rectangle" x="70" y="57.840897" width="52" height="8.82318768"></rect>
                <rect id="Rectangle" x="97" y="46.0766468" width="11" height="8.82318768"></rect>
                <rect id="Rectangle" x="111" y="46.0766468" width="11" height="8.82318768"></rect>
                <rect id="Rectangle" x="125" y="46.0766468" width="11" height="8.82318768"></rect>
                <rect id="Rectangle" x="139" y="46.0766468" width="11" height="8.82318768"></rect>
                <rect id="Rectangle" x="153" y="46.0766468" width="11" height="8.82318768"></rect>
                <rect id="Rectangle" x="167" y="46.0766468" width="25" height="8.82318768"></rect>
                <rect id="Rectangle" x="14" y="10.783896" width="11" height="8.82318768"></rect>
                <rect id="Rectangle" x="0" y="10.783896" width="11" height="8.82318768"></rect>
                <polygon id="Combined-Shape" points="183 38.2338133 183 30.3909798 178 30.3909798 178 22.5481463 192 22.5481463 192 30.3909798 192 38.2338133 192 43.1355842 183 43.1355842"></polygon>
            </g>
            <g id="Group" transform="translate(310.000000, 231.363588)" fill="#32597F" fill-rule="nonzero">
                <rect id="Rectangle" stroke="#32597F" x="0.5" y="0.490177093" width="10" height="6.8624793" rx="3.43123965"></rect>
                <rect id="Rectangle" stroke="#32597F" x="14.5" y="0.490177093" width="10" height="6.8624793" rx="3.43123965"></rect>
                <rect id="Rectangle" stroke="#32597F" x="28.5" y="0.490177093" width="10" height="6.8624793" rx="3.43123965"></rect>
                <rect id="Rectangle" stroke="#32597F" x="42.5" y="0.490177093" width="10" height="6.8624793" rx="3.43123965"></rect>
                <rect id="Rectangle" stroke="#32597F" x="56.5" y="0.490177093" width="10" height="6.8624793" rx="3.43123965"></rect>
                <rect id="Rectangle" stroke="#32597F" x="70.5" y="0.490177093" width="10" height="6.8624793" rx="3.43123965"></rect>
                <rect id="Rectangle" stroke="#32597F" x="83.5" y="0.490177093" width="10" height="6.8624793" rx="3.43123965"></rect>
                <rect id="Rectangle" stroke="#32597F" x="97.5" y="0.490177093" width="10" height="6.8624793" rx="3.43123965"></rect>
                <rect id="Rectangle" stroke="#32597F" x="111.5" y="0.490177093" width="10" height="6.8624793" rx="3.43123965"></rect>
                <rect id="Rectangle" stroke="#32597F" x="125.5" y="0.490177093" width="10" height="6.8624793" rx="3.43123965"></rect>
                <rect id="Rectangle" stroke="#32597F" x="139.5" y="0.490177093" width="10" height="6.8624793" rx="3.43123965"></rect>
                <rect id="Rectangle" stroke="#32597F" x="153.5" y="0.490177093" width="10" height="6.8624793" rx="3.43123965"></rect>
                <rect id="Rectangle" stroke="#32597F" x="167.5" y="0.490177093" width="10" height="6.8624793" rx="3.43123965"></rect>
                <rect id="Rectangle" stroke="#32597F" x="181.5" y="0.490177093" width="10" height="6.8624793" rx="3.43123965"></rect>
                <rect id="Rectangle" stroke="#32597F" x="167.5" y="11.2740731" width="24" height="7.84283349"></rect>
                <rect id="Rectangle" stroke="#32597F" x="0.5" y="23.0383234" width="24" height="7.84283349"></rect>
                <rect id="Rectangle" stroke="#32597F" x="0.5" y="34.8025736" width="24" height="7.84283349"></rect>
                <rect id="Rectangle" stroke="#32597F" x="153.5" y="11.2740731" width="10" height="7.84283349"></rect>
                <rect id="Rectangle" stroke="#32597F" x="139.5" y="11.2740731" width="10" height="7.84283349"></rect>
                <rect id="Rectangle" stroke="#32597F" x="125.5" y="11.2740731" width="10" height="7.84283349"></rect>
                <rect id="Rectangle" stroke="#32597F" x="111.5" y="11.2740731" width="10" height="7.84283349"></rect>
                <rect id="Rectangle" stroke="#32597F" x="97.5" y="11.2740731" width="10" height="7.84283349"></rect>
                <rect id="Rectangle" stroke="#32597F" x="83.5" y="11.2740731" width="10" height="7.84283349"></rect>
                <rect id="Rectangle" stroke="#32597F" x="69.5" y="11.2740731" width="10" height="7.84283349"></rect>
                <rect id="Rectangle" stroke="#32597F" x="56.5" y="11.2740731" width="10" height="7.84283349"></rect>
                <rect id="Rectangle" stroke="#32597F" x="42.5" y="11.2740731" width="10" height="7.84283349"></rect>
                <rect id="Rectangle" stroke="#32597F" x="28.5" y="11.2740731" width="10" height="7.84283349"></rect>
                <rect id="Rectangle" stroke="#32597F" x="28.5" y="23.0383234" width="10" height="7.84283349"></rect>
                <rect id="Rectangle" stroke="#32597F" x="42.5" y="23.0383234" width="10" height="7.84283349"></rect>
                <rect id="Rectangle" stroke="#32597F" x="56.5" y="23.0383234" width="10" height="7.84283349"></rect>
                <rect id="Rectangle" stroke="#32597F" x="70.5" y="23.0383234" width="10" height="7.84283349"></rect>
                <rect id="Rectangle" stroke="#32597F" x="84.5" y="23.0383234" width="10" height="7.84283349"></rect>
                <rect id="Rectangle" stroke="#32597F" x="97.5" y="23.0383234" width="10" height="7.84283349"></rect>
                <rect id="Rectangle" stroke="#32597F" x="111.5" y="23.0383234" width="10" height="7.84283349"></rect>
                <rect id="Rectangle" stroke="#32597F" x="125.5" y="23.0383234" width="10" height="7.84283349"></rect>
                <rect id="Rectangle" stroke="#32597F" x="139.5" y="23.0383234" width="10" height="7.84283349"></rect>
                <rect id="Rectangle" stroke="#32597F" x="153.5" y="23.0383234" width="10" height="7.84283349"></rect>
                <rect id="Rectangle" stroke="#32597F" x="166.5" y="23.0383234" width="10" height="7.84283349"></rect>
                <rect id="Rectangle" stroke="#32597F" x="28.5" y="34.8025736" width="10" height="7.84283349"></rect>
                <rect id="Rectangle" stroke="#32597F" x="0.5" y="46.5668238" width="17" height="7.84283349"></rect>
                <rect id="Rectangle" stroke="#32597F" x="42.5" y="34.8025736" width="10" height="7.84283349"></rect>
                <rect id="Rectangle" stroke="#32597F" x="56.5" y="34.8025736" width="10" height="7.84283349"></rect>
                <rect id="Rectangle" stroke="#32597F" x="70.5" y="34.8025736" width="10" height="7.84283349"></rect>
                <rect id="Rectangle" stroke="#32597F" x="84.5" y="34.8025736" width="10" height="7.84283349"></rect>
                <rect id="Rectangle" stroke="#32597F" x="97.5" y="34.8025736" width="10" height="7.84283349"></rect>
                <rect id="Rectangle" stroke="#32597F" x="111.5" y="34.8025736" width="10" height="7.84283349"></rect>
                <rect id="Rectangle" stroke="#32597F" x="125.5" y="34.8025736" width="10" height="7.84283349"></rect>
                <rect id="Rectangle" stroke="#32597F" x="139.5" y="34.8025736" width="10" height="7.84283349"></rect>
                <rect id="Rectangle" stroke="#32597F" x="153.5" y="34.8025736" width="10" height="7.84283349"></rect>
                <rect id="Rectangle" stroke="#32597F" x="28.5" y="46.5668238" width="10" height="7.84283349"></rect>
                <rect id="Rectangle" stroke="#32597F" x="42.5" y="46.5668238" width="10" height="7.84283349"></rect>
                <rect id="Rectangle" stroke="#32597F" x="56.5" y="46.5668238" width="10" height="7.84283349"></rect>
                <rect id="Rectangle" stroke="#32597F" x="70.5" y="46.5668238" width="10" height="7.84283349"></rect>
                <rect id="Rectangle" stroke="#32597F" x="84.5" y="46.5668238" width="10" height="7.84283349"></rect>
                <rect id="Rectangle" stroke="#32597F" x="28.5" y="58.3310741" width="10" height="7.84283349"></rect>
                <rect id="Rectangle" stroke="#32597F" x="14.5" y="58.3310741" width="10" height="7.84283349"></rect>
                <rect id="Rectangle" stroke="#32597F" x="0.5" y="58.3310741" width="10" height="7.84283349"></rect>
                <rect id="Rectangle" stroke="#32597F" x="42.5" y="58.3310741" width="10" height="7.84283349"></rect>
                <rect id="Rectangle" stroke="#32597F" x="56.5" y="58.3310741" width="10" height="7.84283349"></rect>
                <rect id="Rectangle" stroke="#32597F" x="125.5" y="58.3310741" width="10" height="7.84283349"></rect>
                <rect id="Rectangle" stroke="#32597F" x="139.5" y="58.3310741" width="10" height="7.84283349"></rect>
                <rect id="Rectangle" stroke="#32597F" x="153.5" y="58.3310741" width="10" height="7.84283349"></rect>
                <rect id="Rectangle" stroke="#32597F" x="175.5" y="56.3703657" width="8" height="3.92141674"></rect>
                <rect id="Rectangle" stroke="#32597F" x="175.5" y="62.2524908" width="8" height="3.92141674"></rect>
                <rect id="Rectangle" stroke="#32597F" x="186.5" y="62.2524908" width="7" height="3.92141674"></rect>
                <rect id="Rectangle" stroke="#32597F" x="166.5" y="34.8025736" width="10" height="7.84283349"></rect>
                <rect id="Rectangle" stroke="#32597F" x="70.5" y="58.3310741" width="51" height="7.84283349"></rect>
                <rect id="Rectangle" stroke="#32597F" x="97.5" y="46.5668238" width="10" height="7.84283349"></rect>
                <rect id="Rectangle" stroke="#32597F" x="111.5" y="46.5668238" width="10" height="7.84283349"></rect>
                <rect id="Rectangle" stroke="#32597F" x="125.5" y="46.5668238" width="10" height="7.84283349"></rect>
                <rect id="Rectangle" stroke="#32597F" x="139.5" y="46.5668238" width="10" height="7.84283349"></rect>
                <rect id="Rectangle" stroke="#32597F" x="153.5" y="46.5668238" width="10" height="7.84283349"></rect>
                <rect id="Rectangle" stroke="#32597F" x="167.5" y="46.5668238" width="24" height="7.84283349"></rect>
                <rect id="Rectangle" stroke="#32597F" x="0.5" y="23.0383234" width="24" height="7.84283349"></rect>
                <rect id="Rectangle" stroke="#32597F" x="14.5" y="11.2740731" width="10" height="7.84283349"></rect>
                <rect id="Rectangle" stroke="#32597F" x="0.5" y="11.2740731" width="10" height="7.84283349"></rect>
                <polygon id="Combined-Shape" points="183 38.2338133 183 30.3909798 178 30.3909798 178 22.5481463 192 22.5481463 192 30.3909798 192 38.2338133 192 43.1355842 183 43.1355842"></polygon>
                <rect id="Rectangle" x="165" y="61.7623137" width="8" height="4.90177093"></rect>
            </g>
            <g id="Group" transform="translate(433.000000, 244.108192)" fill="#20315F" fill-rule="nonzero">
                <path d="M35,6.39865391 C35.6505975,6.09209926 37.2682219,5.40822284 39.8528734,6.39865391 C43.8905059,9.38855113 45.6890129,10.4294295 47.0615311,11.6815425 C48.4340493,12.9336554 50.3667482,16.4094478 52.9453545,19.9486657 L57.4807385,34.6588043 L53.894786,18.1705851 L53.894786,14.8058673 C54.9519439,14.3856388 55.7632427,14.1770059 56.3286823,14.1799686 C57.4415271,14.1857998 58.6538076,14.2581152 59.7966707,15.806413 C60.7537423,17.103009 60.7130998,17.7568023 62.0731942,19.9486657 C63.0744345,21.5622167 64.485683,24.8517477 66.3069397,29.8172586 C67.9763051,32.5449612 68.9574894,35.4952874 69.2504926,38.6682373 C69.5434957,41.8411873 69.985511,46.4415642 70.5765383,52.4693682 L75.027398,93.6995796 L41.2600096,105.878252" id="Path"></path>
                <path d="M41.2600096,105.878252 L19.3367183,81.8100321 L12.3450485,76.1163811 L8.98514886,71.5125207 L5.73795724,56.6364611 L2.48878416,48.3393052 L-5.68434189e-14,43.1433311 C0.0793677161,42.2333732 0.269462544,41.520871 0.570284483,41.0058244 C0.871106423,40.4907779 1.51060631,39.7829054 2.48878416,38.882207 C3.90101258,38.3675576 4.98407027,38.110233 5.73795724,38.110233 C6.49184421,38.110233 7.57424142,38.5840464 8.98514886,39.5316733 L13.9008462,45.5962655 L19.3367183,54.0825966 L19.3367183,45.5962655 L14.7709949,28.6209365 L11.5494116,10.3706902 C11.5494116,8.37971982 15.2926326,7.38304962 16.4215102,7.38304962 C17.0059554,7.38304962 18.5370594,7.79702969 19.3367183,8.37971982 C20.0816303,8.92251742 19.5278187,8.46463691 20.2421236,9.2286075 C20.8751602,10.3687892 21.2573404,11.1196552 21.3886642,11.4812055 C21.7316331,12.4254401 22.0937538,13.8838548 22.2499744,14.3873433 C22.9538979,16.6560416 23.9013199,19.9092087 25.0922406,24.1468448 L30.7987257,36.2772583 C31.9169501,33.7291351 32.4760623,31.6191204 32.4760623,29.9472144 C32.4760623,28.2753084 31.9169501,25.3739047 30.7987257,21.2430034 L24.7704412,5.66525821 C24.7185194,5.53108658 24.6406366,5.20235632 24.536793,4.67906744 C24.7097717,4.49181773 24.3706561,2.45595493 24.536793,2.24129995 C25.3085168,1.24420472 25.46214,1.23230235 25.7538327,1.033023 C26.9912934,0.187611305 27.2628124,0.185713743 27.8985175,0.0724670599 C28.8073829,-0.089441324 29.774119,-0.0619010025 30.7987257,1.033023 C31.8253893,2.29355292 31.2308444,2.07559943 32.4760623,3.61042005 C33.1751488,4.4720945 33.8180052,6.43492173 34.5859776,7.38304962 C36.721868,10.0199896 37.8825725,13.0192009 38.981931,14.3873433" id="Path"></path>
            </g>
            <path d="M273.035894,227.014487 C249.259442,226.111193 212.683224,223.440543 200,248.210998" id="Path-5" stroke="#487D9B"></path>
            <g id="var-j=1;-var-output" transform="translate(361.000000, 155.876316)" fill-rule="nonzero" font-family="Hack-Regular, Hack" font-size="4" font-weight="normal">
                <g id="var-j=1;" fill="#487D9B">
                    <text>
                        <tspan x="0" y="4">var j=1;</tspan>
                    </text>
                </g>
                <g id="var" transform="translate(0.000000, 4.901771)" fill="#487D9B">
                    <text>
                        <tspan x="0" y="4">var</tspan>
                    </text>
                </g>
                <g id="output" transform="translate(9.000000, 4.901771)" fill="#83F4B6">
                    <text>
                        <tspan x="0.632812" y="4">output</tspan>
                    </text>
                </g>
                <g id="=-&quot;&lt;table-border='1'-width='500'" transform="translate(24.000000, 4.901771)" fill="#487D9B">
                    <text>
                        <tspan x="0.082031" y="4">= "&lt;table border='1' width='500'</tspan>
                    </text>
                </g>
                <g id="cellspacing='0'" transform="translate(0.000000, 9.803542)" fill="#487D9B">
                    <text>
                        <tspan x="0" y="4">cellspacing='0'</tspan>
                    </text>
                </g>
                <g id="cellpadding" transform="translate(36.000000, 9.803542)" fill="#83F4B6">
                    <text>
                        <tspan x="0.123047" y="4">cellpadding</tspan>
                    </text>
                </g>
                <g id="='5'&gt;&quot;;" transform="translate(62.000000, 9.803542)" fill="#487D9B">
                    <text>
                        <tspan x="0.613281" y="4">='5'&gt;";</tspan>
                    </text>
                </g>
                <g id="for(i=1;i&lt;=rows;i++)" transform="translate(0.000000, 14.705313)" fill="#487D9B">
                    <text>
                        <tspan x="0" y="4">for(i=1;i&lt;=rows;i++)</tspan>
                    </text>
                </g>
                <g id="{" transform="translate(0.000000, 19.607084)" fill="#487D9B">
                    <text>
                        <tspan x="0" y="4">{</tspan>
                    </text>
                </g>
                <g id="output-=-output-+-&quot;&lt;tr&gt;&quot;;" transform="translate(0.000000, 24.508855)" fill="#487D9B">
                    <text>
                        <tspan x="0" y="4">output = output + "&lt;tr&gt;";</tspan>
                    </text>
                </g>
            </g>
            <g id="Group-3" transform="translate(739.500000, 232.343942) rotate(-1.000000) translate(-739.500000, -232.343942) translate(699.000000, 178.424462)" fill-rule="nonzero">
                <polygon id="Rectangle" fill="#081833" transform="translate(39.957675, 54.879936) rotate(20.000000) translate(-39.957675, -54.879936) " points="15.7602267 16.7111898 64.6476186 16.4018017 64.1551233 93.0486819 15.2677314 93.35807"></polygon>
                <path d="M50.2748168,99.2590948 L50.2685028,98.2764428 L1.3811109,97.9670547 L1.39373898,99.932359 L1.36200551,95.0190978 C1.33427157,90.6774667 4.88514719,87.1804945 9.29327144,87.2083917 L42.2174333,87.4167551 C46.6255576,87.4446523 50.2216635,90.9868548 50.2495607,95.3284859 L50.2748168,99.2590948 Z" id="Combined-Shape" fill="#32597F" transform="translate(25.818411, 93.570292) scale(-1, 1) rotate(160.000000) translate(-25.818411, -93.570292) "></path>
                <path d="M79.3156095,20.3761329 L79.3219236,19.3934806 L30.4345316,19.7028687 L30.4219035,21.6681733 L30.4534738,16.7549118 C30.481371,12.4132807 34.0774769,8.87107813 38.4856011,8.84318093 L71.409763,8.63481752 C75.8178873,8.60692032 79.3687629,12.1038926 79.341029,16.4455237 L79.3156095,20.3761329 Z" id="Combined-Shape" fill="#32597F" transform="translate(54.881466, 15.151413) rotate(20.000000) translate(-54.881466, -15.151413) "></path>
                <path d="M58.4950392,17.8479359 L52.5088279,17.8858202 C51.6812342,17.8910577 51.0165087,17.2364229 51.0217154,16.4213128 C51.0269837,15.6062027 51.7001763,14.9431007 52.5277701,14.9378632 L58.5139813,14.899979 C59.341575,14.8947415 60.0063006,15.5493763 60.0010938,16.3644864 C59.9958256,17.1795965 59.3226329,17.8426984 58.4950392,17.8479359 Z" id="Path" fill="#487D9B" transform="translate(55.511405, 16.392900) rotate(20.000000) translate(-55.511405, -16.392900) "></path>
                <g id="23:02" transform="translate(46.427244, 39.367121) rotate(20.000000) translate(-46.427244, -39.367121) translate(33.927244, 33.484996)" fill="#66A5B2" font-family="ProximaNova-Bold, Proxima Nova" font-size="9" font-weight="bold">
                    <g id="Group">
                        <text id="23:02">
                            <tspan x="0.1449586" y="8.25634646">23:02</tspan>
                        </text>
                    </g>
                </g>
                <ellipse id="Oval" fill="#487D9B" transform="translate(25.500000, 94.362284) rotate(20.000000) translate(-25.500000, -94.362284) " cx="25.5" cy="94.3622844" rx="3.49202799" ry="3.4393556"></ellipse>
            </g>
            <rect id="Rectangle" fill="#32597F" fill-rule="nonzero" x="277" y="212.736858" width="258" height="3.92141674"></rect>
            <polygon id="Rectangle" fill="#32597F" fill-rule="nonzero" transform="translate(194.564420, 269.555569) rotate(11.000000) translate(-194.564420, -269.555569) " points="180.100491 248.078753 209.079748 247.972041 208.91784 291.139097 180.049092 290.909908"></polygon>
            <rect id="Rectangle" fill="#487D9B" fill-rule="nonzero" x="506" y="228.422525" width="29" height="125.485336"></rect>
            <rect id="Rectangle" fill="#081833" fill-rule="nonzero" x="142" y="173.522691" width="4" height="44.1159384"></rect>
            <path d="M461.179859,338.398291 L483.043711,331.486534 L516.704971,320.845296 C519.201417,320.025683 521.070573,319.616725 522.312441,319.618418 C523.554309,319.620121 525.321712,320.034051 527.614653,320.860212 L535.477205,361.691192 L542.248514,377.844958 C547.884186,388.985589 551.194186,396.112226 552.178515,399.224867 C553.04656,401.969795 553.372751,403.3642 553.372751,403.3642 C553.372751,403.3642 553.849357,404.839586 554.36019,405.926373 C554.871022,407.013161 555.582549,409.472855 557.10581,412.221816 C560.989131,419.229869 564.747549,424.644223 568.381064,428.464879 C568.381064,428.464879 569.161846,429.492788 570.72341,431.548606 C572.284974,433.604424 574.031521,435.710402 575.963051,437.866538 C577.00867,438.764105 577.75398,439.767931 578.198982,440.878019 C578.866484,442.543149 576.382016,445.189122 575.973262,445.189122 C575.564508,445.189122 497.04855,439.715696 495.252448,439.590101 C493.397631,438.965414 492.721624,435.809614 491.693481,433.350343 L488.529705,423.7118 L486.83887,415.063637 L481.232074,380.970122 L461.179859,338.398291 Z" id="Right-sleeve" fill="#081833" fill-rule="nonzero" transform="translate(519.746033, 382.403770) rotate(-4.000000) translate(-519.746033, -382.403770) "></path>
            <path d="M176.513129,288.577551 L204.658134,288.473911 C204.924623,289.15646 205.057253,289.661738 205.056031,289.989748 C205.054792,290.317757 204.918483,290.793548 204.647095,291.417119 L176.50209,291.520759 C176.217428,290.867753 176.075745,290.368434 176.077032,290.022799 C176.078338,289.677165 176.223701,289.195415 176.513129,288.577551 Z" id="Rectangle" fill="#081833" fill-rule="nonzero" transform="translate(190.566532, 289.997335) rotate(11.000000) translate(-190.566532, -289.997335) "></path>
            <ellipse id="Oval" fill="#83F4B6" fill-rule="nonzero" cx="202.5" cy="292.635725" rx="1" ry="1"></ellipse>
            <ellipse id="Oval" fill="#83F4B6" fill-rule="nonzero" cx="143.5" cy="215.187744" rx="1" ry="1"></ellipse>
            <polygon id="Rectangle" fill="#081833" fill-rule="nonzero" transform="translate(200.000000, 248.029609) rotate(11.000000) translate(-200.000000, -248.029609) " points="198.00511 247.055899 202.002249 247.04118 201.99489 249.003319 197.997751 249.018038"></polygon>
            <rect id="Rectangle" fill="#32597F" fill-rule="nonzero" x="285" y="206.854733" width="243" height="1.96070837"></rect>
            <path d="M285.368102,335.486622 C280.482677,334.506619 277.470668,337.031907 276.332075,343.062487 C275.718369,346.312998 274.038621,351.600225 273.448203,355.898929 C273.111557,358.349969 271.572423,362.685213 268.8308,368.904663 L263.089926,388.220258 L248.828624,419.261612 C248.355425,420.121168 246.209232,422.573913 242.390046,426.619849 C238.57086,430.665785 238.194617,436.127493 240.717065,441.159384 L313.230389,441.159384 L316.409677,433.027346 L322.908809,410.81344 C326.233547,402.193235 328.816882,396.133079 330.658813,392.632971 C335.222081,383.961672 340.426886,377.598068 342.928163,371.378417 C346.943874,361.392989 346.943874,356.23316 342.928163,355.898929 L295.878394,335.486622 L285.368102,335.486622 Z" id="Left-sleeve" fill="#081833" fill-rule="nonzero"></path>
            <path d="M338.323522,249.526492 C337.668112,249.219938 336.03852,248.536061 333.434747,249.526492 C329.367244,252.516389 327.555432,253.557268 326.172759,254.809381 C324.790087,256.061494 322.84309,259.537286 320.245407,263.076504 L315.67647,277.786643 L319.288952,261.298424 L319.288952,257.933706 C318.223973,257.513477 317.406672,257.304844 316.83705,257.307807 C315.715972,257.313638 314.494723,257.385954 313.343405,258.934251 C312.379253,260.230847 312.420196,260.884641 311.050039,263.076504 C310.041392,264.690055 308.619703,267.979585 306.784973,272.945097 C305.103257,275.672799 304.114814,278.623125 303.819643,281.796076 C303.524472,284.969025 303.079187,289.569402 302.483787,295.597206 L298,336.827418 L330.014454,353.907861" id="Path" fill="#20315F" fill-rule="nonzero"></path>
            <path d="M330.014454,353.907861 L352.099934,329.839641 L359.143329,324.14599 L362.528085,319.54213 L365.7993,304.66607 L369.07251,296.368914 L371.579706,291.17294 C371.499752,290.262982 371.30825,289.55048 371.005203,289.035434 C370.702156,288.520387 370.057925,287.812514 369.07251,286.911816 C367.649834,286.397167 366.558764,286.139842 365.7993,286.139842 C365.039835,286.139842 363.94943,286.613656 362.528085,287.561283 L357.576021,293.625874 L352.099934,302.112206 L352.099934,293.625874 L356.699435,276.650546 L360.043279,258.4003 C357.842795,256.408539 356.173938,255.412658 355.036709,255.412658 C353.89948,255.412658 352.4232,256.408539 350.60787,258.4003 L346.301832,272.176454 L340.553131,284.306868 C339.426633,281.758744 338.863385,279.64873 338.863385,277.976824 C338.863385,276.304918 339.426633,273.403514 340.553131,269.272613 L346.861389,253.091095 C346.687131,252.903845 347.028755,250.485564 346.861389,250.270909 C346.083956,249.273814 345.929196,249.261911 345.635346,249.062632 C344.38873,248.21722 344.115203,248.215323 343.474795,248.102076 C342.559205,247.940167 341.585317,247.967709 340.553131,249.062632 C339.518872,250.323162 338.030923,251.556274 336.776493,253.091095 C336.072235,253.95277 335.676883,255.461201 334.903229,256.409329 C332.751537,259.046269 331.121945,261.04881 330.014454,262.416953 C325.148779,274.111556 323.235341,278.856087 324.274141,276.650546" id="Path" fill="#20315F" fill-rule="nonzero"></path>
            <rect id="Rectangle" fill="#32597F" fill-rule="nonzero" x="264" y="95.0943561" width="282" height="1.96070837"></rect>
            <rect id="Rectangle" fill-opacity="0.86948208" fill="#65C3C5" fill-rule="nonzero" x="509" y="222.5404" width="13" height="2.94106256"></rect>
            <rect id="Rectangle" fill="#32597F" fill-rule="nonzero" x="516" y="222.5404" width="8" height="2.94106256"></rect>
            <path d="M194.449637,193.549825 C203.156854,196.504575 214.542092,195.583292 220.571287,202.414075 C227.252623,209.983702 223.966257,222.350471 227.990755,231.55027 C234.256228,245.872826 259.616215,239.558841 270.912793,238.144965" id="Path-6" stroke="#081833"></path>
            <rect id="Rectangle" fill="#32597F" fill-rule="nonzero" x="146" y="173.522691" width="45" height="44.1159384"></rect>
            <path d="M589,257.83651 L589,324.215583 C588.834613,324.217817 588.66795,324.218942 588.5,324.218942 C572.178722,324.218942 568,313.597474 568,306.528814 L568,275.523538 C568,268.454618 572.178722,257.833151 588.5,257.833151 C588.66795,257.833151 588.834613,257.834275 589,257.83651 Z" id="Combined-Shape" fill="#32597F" fill-rule="nonzero"></path>
            <path d="M610.980902,257.675866 L611.00387,323.356944 C610.902283,323.358377 610.800166,323.358377 610.697518,323.358377 C595.968648,323.353317 592.193954,312.842819 592.191508,305.848871 L592.180779,275.171302 C592.178335,268.177097 595.945679,257.669186 610.674549,257.674233 C610.777198,257.674233 610.879314,257.674233 610.980902,257.675866 L610.980902,257.675866 Z" id="Combined-Shape" fill="#65C3C5" fill-rule="nonzero" transform="translate(601.592325, 290.516305) rotate(179.000000) translate(-601.592325, -290.516305) "></path>
            <path d="M590,257.554857 C574.872962,257.554857 571,268.22085 571,275.319403 L571,306.454656 C571,313.552949 574.872962,324.218942 590,324.218942 C605.127038,324.218942 609,313.552949 609,306.454656 L609,275.319403 C609,268.22085 605.127038,257.554857 590,257.554857 Z" id="Path" fill="#487D9B" fill-rule="nonzero"></path>
            <g id="Group-6" transform="translate(630.000000, 193.619952) rotate(-134.000000) translate(-630.000000, -193.619952) translate(589.000000, 149.013836)">
                <ellipse id="Oval" stroke="#487D9B" transform="translate(54.214474, 36.653949) rotate(-109.000000) translate(-54.214474, -36.653949) " cx="54.2144742" cy="36.6539495" rx="16.7018248" ry="18.9607201"></ellipse>
                <path d="M14.3474969,9.40876496 L14.1797943,37.0815203 L14.1891111,35.5441451 C14.0861283,52.5374352 26.3323174,66.2141741 41.5671664,66.1208723 C59.8518183,66.007838 74.9851287,54.1533307 75.1087176,33.7598024 L75.1532334,26.4142138" id="Path" stroke="#487D9B" transform="translate(44.666514, 37.764819) rotate(-109.000000) translate(-44.666514, -37.764819) "></path>
                <path d="M20.7327535,17.7195532 C19.1043649,17.7295244 17.794104,16.3086252 17.8047961,14.5443068 L17.8338245,9.75430209 L23.7284437,9.71801658 L23.6994153,14.5080213 C23.6887232,16.2723397 22.361142,17.7094767 20.7327535,17.7195532 Z" id="Path" fill="#32597F" fill-rule="nonzero" transform="translate(20.766587, 13.718785) rotate(-109.000000) translate(-20.766587, -13.718785) "></path>
                <ellipse id="Oval" stroke="#487D9B" transform="translate(49.649665, 38.713282) rotate(-109.000000) translate(-49.649665, -38.713282) " cx="49.649665" cy="38.7132816" rx="21.1228949" ry="23.9503841"></ellipse>
                <g id="Group-4" transform="translate(0.000000, 10.599927)" fill-rule="nonzero">
                    <polygon id="Rectangle" fill="#416F98" transform="translate(7.500000, 7.352656) rotate(-108.000000) translate(-7.500000, -7.352656) " points="2.12948961 1.89473012 12.9340217 1.83121876 12.8705104 12.8105827 2.06597825 12.874094"></polygon>
                    <polygon id="Rectangle" fill="#416F98" transform="translate(7.500000, 7.352656) rotate(-108.000000) translate(-7.500000, -7.352656) " points="2.12948961 1.89473012 12.9340217 1.83121876 12.8705104 12.8105827 2.06597825 12.874094"></polygon>
                    <polygon id="Rectangle" fill="#32597F" transform="translate(6.246136, 5.184345) rotate(-18.000000) translate(-6.246136, -5.184345) " points="4.74028939 3.70233914 7.73466136 3.71966042 7.75198264 6.666351 4.75761067 6.64902972"></polygon>
                </g>
                <g id="Group-4" transform="translate(4.569596, 73.900999)" fill-rule="nonzero">
                    <polygon id="Rectangle" fill="#416F98" transform="translate(7.500000, 7.352656) rotate(-108.000000) translate(-7.500000, -7.352656) " points="2.12948961 1.89473012 12.9340217 1.83121876 12.8705104 12.8105827 2.06597825 12.874094"></polygon>
                    <polygon id="Rectangle" fill="#416F98" transform="translate(7.500000, 7.352656) rotate(-108.000000) translate(-7.500000, -7.352656) " points="2.12948961 1.89473012 12.9340217 1.83121876 12.8705104 12.8105827 2.06597825 12.874094"></polygon>
                    <polygon id="Rectangle" fill="#32597F" transform="translate(6.246136, 5.184345) rotate(-18.000000) translate(-6.246136, -5.184345) " points="4.74028939 3.70233914 7.73466136 3.71966042 7.75198264 6.666351 4.75761067 6.64902972"></polygon>
                </g>
                <polygon id="Rectangle" fill="#32597F" fill-rule="nonzero" transform="translate(7.791221, 20.446133) rotate(-18.000000) translate(-7.791221, -20.446133) " points="6.28537448 18.9641266 9.27974645 18.9814479 9.29706773 21.9281385 6.30269576 21.9108172"></polygon>
                <polygon id="Rectangle" fill="#32597F" fill-rule="nonzero" transform="translate(12.459706, 83.596811) rotate(-18.000000) translate(-12.459706, -83.596811) " points="10.9538592 82.1148049 13.9482311 82.1321262 13.9655524 85.0788168 10.9711804 85.0614955"></polygon>
                <path d="M13.306824,73.2706358 L13.2543213,81.9292347 C13.2499364,82.6577145 13.7359945,83.2467982 14.3384246,83.2431072 L17.3725816,83.2244125 L17.3927402,79.8980203 L22.8943849,79.8641538 L22.8742262,83.190546 L25.9083832,83.1718686 C26.5108133,83.1681602 27.0040479,82.5730484 27.0084627,81.8445685 L27.0609355,73.1859696 L13.306824,73.2706358 Z" id="Path" fill="#081833" fill-rule="nonzero" transform="translate(20.157628, 78.214538) rotate(-109.000000) translate(-20.157628, -78.214538) "></path>
                <path d="M9.19541423,10.3742389 L9.14291138,19.0328376 C9.13851653,19.7629807 9.62458475,20.3504013 10.2270149,20.3467103 L13.2611719,20.3280155 L13.2813305,17.0016233 L18.7829751,16.9677568 L18.7628165,20.294149 L21.7969735,20.2754717 C22.400779,20.2717548 22.8926382,19.6766513 22.8970529,18.9481714 L22.9495258,10.2895727 L9.19541423,10.3742389 Z" id="Path" fill="#081833" fill-rule="nonzero" transform="translate(16.046219, 15.318142) rotate(-109.000000) translate(-16.046219, -15.318142) "></path>
                <path d="M24.8441616,80.6159507 L24.8441616,80.6159507 C23.215773,80.6259219 21.9055121,79.2050227 21.9162042,77.4407043 L21.9452326,72.6506995 L27.8398519,72.614414 L27.8108235,77.4044187 C27.8001313,79.1687372 26.4725501,80.6058741 24.8441616,80.6159507 Z" id="Path" fill="#546A79" fill-rule="nonzero" transform="translate(24.877996, 76.615182) rotate(-109.000000) translate(-24.877996, -76.615182) "></path>
                <path d="M24.8441616,80.6159507 L24.8441616,80.6159507 C23.215773,80.6259219 21.9055121,79.2050227 21.9162042,77.4407043 L21.9452326,72.6506995 L27.8398519,72.614414 L27.8108235,77.4044187 C27.8001313,79.1687372 26.4725501,80.6058741 24.8441616,80.6159507 Z" id="Path" fill="#546A79" fill-rule="nonzero" transform="translate(24.877996, 76.615182) rotate(-109.000000) translate(-24.877996, -76.615182) "></path>
                <path d="M24.8441616,80.6159507 L24.8441616,80.6159507 C23.215773,80.6259219 21.9055121,79.2050227 21.9162042,77.4407043 L21.9452326,72.6506995 L27.8398519,72.614414 L27.8108235,77.4044187 C27.8001313,79.1687372 26.4725501,80.6058741 24.8441616,80.6159507 Z" id="Path" fill="#546A79" fill-rule="nonzero" transform="translate(24.877996, 76.615182) rotate(-109.000000) translate(-24.877996, -76.615182) "></path>
                <path d="M24.8441616,80.6159507 L24.8441616,80.6159507 C23.215773,80.6259219 21.9055121,79.2050227 21.9162042,77.4407043 L21.9452326,72.6506995 L27.8398519,72.614414 L27.8108235,77.4044187 C27.8001313,79.1687372 26.4725501,80.6058741 24.8441616,80.6159507 Z" id="Path" fill="#416F98" fill-rule="nonzero" transform="translate(24.877996, 76.615182) rotate(-109.000000) translate(-24.877996, -76.615182) "></path>
            </g>
        </g>
    </g>
</svg>